M48
;Layer_Color=9474304
;FILE_FORMAT=4:4
METRIC,LZ
;TYPE=PLATED
T1F00S00C0.3000
T2F00S00C0.8000
T3F00S00C0.9398
;TYPE=NON_PLATED
T5F00S00C1.5000
%
T01
X0010922Y0007366
X0011938Y0009906
X0010922Y0012446
X001016Y0013208
X001524Y0007112
X0018796Y0002032
X0015494Y0014478
X0014478
X001524Y0018542
X0014478Y0019304
X0018288Y0020828
X0016002Y0036068
X0014732
X0016002Y0037338
X0005334
X0009906Y002667
X0013716
X0012954Y0025908
X0010414Y002286
X0009144Y0022606
X0007747Y0022733
X0006477
X0003302Y002413
X0002286Y001651
X0011938Y0017526
Y0018542
X0009398Y002032
X0013462Y0014478
T02
X0017018Y0008128
X0018542Y00127
X00167537Y00167743
X0015367Y0022479
X0010668Y0020574
X001397Y00167743
X00127Y0015494
X0003048Y0014324
Y0019204
T03
X00071501Y00046228
X00096393
X00116459
X00141351
T05
X00083947Y00024384
X00129413
M30
