%FSLAX44Y44*%
%MOMM*%
G71*
G01*
G75*
G04 Layer_Color=16711935*
%ADD10C,0.2540*%
%ADD11C,0.3810*%
%ADD12C,0.5080*%
%ADD13R,0.9000X1.0000*%
%ADD14R,2.1000X3.0000*%
%ADD15R,0.8000X1.7000*%
%ADD16O,0.8000X1.7000*%
%ADD17R,1.0000X0.9000*%
%ADD18R,1.0000X1.0000*%
%ADD19O,0.6000X1.9000*%
%ADD20R,1.0000X1.0000*%
%ADD21R,1.8000X1.3000*%
%ADD22O,1.5500X0.2500*%
%ADD23O,0.2500X1.5500*%
%ADD24R,2.0000X1.2000*%
%ADD25C,0.7620*%
%ADD26C,1.2700*%
%ADD27C,0.8890*%
%ADD28C,1.6000*%
%ADD29O,1.4000X3.8000*%
%ADD30O,1.5240X2.0320*%
%ADD31C,1.5000*%
%ADD32C,0.7000*%
%ADD33C,1.2000*%
%ADD34C,0.4000*%
%ADD35C,0.2500*%
%ADD36C,0.2000*%
%ADD37C,0.6000*%
%ADD38C,0.1016*%
%ADD39R,1.1032X1.2032*%
%ADD40R,2.3032X3.2032*%
%ADD41R,1.0032X1.9032*%
%ADD42O,1.0032X1.9032*%
%ADD43R,1.2032X1.1032*%
%ADD44R,1.2032X1.2032*%
%ADD45O,0.8032X2.1032*%
%ADD46R,1.2032X1.2032*%
%ADD47R,2.0032X1.5032*%
%ADD48O,1.7532X0.4532*%
%ADD49O,0.4532X1.7532*%
%ADD50R,2.2032X1.4032*%
%ADD51C,1.8032*%
%ADD52O,1.6032X4.0032*%
%ADD53O,1.7272X2.2352*%
%ADD54C,1.7032*%
%ADD55C,0.7508*%
%ADD56C,1.4032*%
%ADD57C,0.1000*%
D36*
X169420Y91060D02*
X201420D01*
X169420Y107060D02*
X201420D01*
Y91060D02*
Y107060D01*
X169420Y91060D02*
Y107060D01*
D57*
X155220Y277650D02*
G03*
X155220Y277650I-5000J0D01*
G01*
X123780Y141640D02*
G03*
X123780Y141640I-5000J0D01*
G01*
X140580Y66370D02*
Y75870D01*
X123580Y66370D02*
Y75870D01*
Y66370D02*
X140580D01*
X123580Y75870D02*
X140580D01*
X97400Y66370D02*
Y75870D01*
X80400Y66370D02*
Y75870D01*
Y66370D02*
X97400D01*
X80400Y75870D02*
X97400D01*
X38430Y270120D02*
X47930D01*
X38430Y253120D02*
X47930D01*
Y270120D01*
X38430Y253120D02*
Y270120D01*
X67450Y307670D02*
X84950D01*
X67450Y317170D02*
X84950D01*
Y307670D02*
Y317170D01*
X67450Y307670D02*
Y317170D01*
X59220Y246750D02*
Y286650D01*
X159220Y246750D02*
Y286650D01*
X59220Y246750D02*
X159220D01*
X59220Y286650D02*
X159220D01*
X18110Y270120D02*
X27610D01*
X18110Y253120D02*
X27610D01*
Y270120D01*
X18110Y253120D02*
Y270120D01*
X70790Y176670D02*
Y194170D01*
X61290Y176670D02*
Y194170D01*
X70790D01*
X61290Y176670D02*
X70790D01*
X94310Y107560D02*
X103810D01*
X94310Y90560D02*
X103810D01*
Y107560D01*
X94310Y90560D02*
Y107560D01*
X133490Y307670D02*
X150990D01*
X133490Y317170D02*
X150990D01*
Y307670D02*
Y317170D01*
X133490Y307670D02*
Y317170D01*
X61290Y133490D02*
Y150990D01*
X70790Y133490D02*
Y150990D01*
X61290Y133490D02*
X70790D01*
X61290Y150990D02*
X70790D01*
X171590Y243510D02*
X189090D01*
X171590Y234010D02*
X189090D01*
X171590D02*
Y243510D01*
X189090Y234010D02*
Y243510D01*
X14110Y95490D02*
X31610D01*
X14110Y61990D02*
X31610D01*
Y95490D01*
X14110Y61990D02*
Y95490D01*
X133740Y101930D02*
Y111430D01*
X150740Y101930D02*
Y111430D01*
X133740D02*
X150740D01*
X133740Y101930D02*
X150740D01*
X165430Y257950D02*
Y275450D01*
X174930Y257950D02*
Y275450D01*
X165430Y257950D02*
X174930D01*
X165430Y275450D02*
X174930D01*
X31860Y8400D02*
Y42400D01*
X13860Y8400D02*
Y42400D01*
X31860D01*
X13860Y8400D02*
X31860D01*
X100470Y317170D02*
X117970D01*
X100470Y307670D02*
X117970D01*
X100470D02*
Y317170D01*
X117970Y307670D02*
Y317170D01*
X179780Y132640D02*
Y202640D01*
X109780Y132640D02*
Y202640D01*
X179780D01*
X109780Y132640D02*
X179780D01*
X79070Y176670D02*
Y194170D01*
X88570Y176670D02*
Y194170D01*
X79070Y176670D02*
X88570D01*
X79070Y194170D02*
X88570D01*
X133490Y84150D02*
X150990D01*
X133490Y93650D02*
X150990D01*
Y84150D02*
Y93650D01*
X133490Y84150D02*
Y93650D01*
X82160Y101930D02*
Y111430D01*
X65160Y101930D02*
Y111430D01*
Y101930D02*
X82160D01*
X65160Y111430D02*
X82160D01*
X206870Y44210D02*
Y77710D01*
X189370Y44210D02*
Y77710D01*
X206870D01*
X189370Y44210D02*
X206870D01*
X79070Y133490D02*
Y150990D01*
X88570Y133490D02*
Y150990D01*
X79070Y133490D02*
X88570D01*
X79070Y150990D02*
X88570D01*
X207950Y11570D02*
Y29070D01*
X198450Y11570D02*
Y29070D01*
X207950D01*
X198450Y11570D02*
X207950D01*
X64910Y84150D02*
X82410D01*
X64910Y93650D02*
X82410D01*
Y84150D02*
Y93650D01*
X64910Y84150D02*
Y93650D01*
M02*
