%FSLAX44Y44*%
%MOMM*%
G71*
G01*
G75*
G04 Layer_Physical_Order=1*
G04 Layer_Color=255*
%ADD10C,0.2540*%
%ADD11C,0.3810*%
%ADD12C,0.5080*%
%ADD13R,0.9000X1.0000*%
%ADD14R,2.1000X3.0000*%
%ADD15R,0.8000X1.7000*%
%ADD16O,0.8000X1.7000*%
%ADD17R,1.0000X0.9000*%
%ADD18R,1.0000X1.0000*%
%ADD19O,0.6000X1.9000*%
%ADD20R,1.0000X1.0000*%
%ADD21R,1.8000X1.3000*%
%ADD22O,1.5500X0.2500*%
%ADD23O,0.2500X1.5500*%
%ADD24R,2.0000X1.2000*%
%ADD25C,0.7620*%
%ADD26C,1.2700*%
%ADD27C,0.8890*%
%ADD28C,1.6000*%
%ADD29O,1.4000X3.8000*%
%ADD30O,1.5240X2.0320*%
%ADD31C,1.5000*%
%ADD32C,0.7000*%
%ADD33C,1.2000*%
G36*
X22860Y39900D02*
X22860Y39900D01*
X22120Y40640D01*
X15240D01*
Y66040D01*
X22860D01*
Y39900D01*
D02*
G37*
G36*
X122604Y100494D02*
X122785Y100263D01*
X122986Y100060D01*
X123207Y99883D01*
X123449Y99734D01*
X123711Y99611D01*
X123994Y99516D01*
X124297Y99448D01*
X124620Y99408D01*
X124964Y99394D01*
X124197Y96854D01*
X123871Y96846D01*
X123232Y96780D01*
X122919Y96722D01*
X122610Y96648D01*
X122306Y96558D01*
X122006Y96451D01*
X121711Y96327D01*
X121133Y96031D01*
X122444Y100752D01*
X122604Y100494D01*
D02*
G37*
G36*
X209734Y390430D02*
X199165D01*
Y372890D01*
Y355350D01*
X209734D01*
Y107346D01*
X206209D01*
Y111760D01*
X205978Y113517D01*
X205299Y115154D01*
X204221Y116561D01*
X193777Y127004D01*
X193697Y127610D01*
X200684Y134596D01*
X200684Y134596D01*
X201155Y135301D01*
X201470Y135772D01*
X201746Y137160D01*
Y142240D01*
X201470Y143628D01*
X201155Y144099D01*
X200684Y144804D01*
X200684Y144804D01*
X197784Y147704D01*
X196607Y148490D01*
X195220Y148766D01*
X195104Y149985D01*
X195135Y150140D01*
X194861Y151520D01*
X194112Y152640D01*
X194861Y153760D01*
X195135Y155140D01*
X194861Y156520D01*
X194112Y157640D01*
X194861Y158760D01*
X195135Y160140D01*
X194861Y161520D01*
X194265Y162411D01*
X195100Y163661D01*
X195142Y163870D01*
X185030D01*
Y166410D01*
X195142D01*
X195100Y166619D01*
X194265Y167869D01*
X194861Y168760D01*
X195135Y170140D01*
X194861Y171520D01*
X194112Y172640D01*
X194861Y173760D01*
X195135Y175140D01*
X194861Y176520D01*
X194112Y177640D01*
X194861Y178760D01*
X195135Y180140D01*
X194861Y181520D01*
X194112Y182640D01*
X194861Y183760D01*
X195135Y185140D01*
X194861Y186520D01*
X194112Y187640D01*
X194861Y188760D01*
X195135Y190140D01*
X194861Y191520D01*
X194112Y192640D01*
X194861Y193760D01*
X195135Y195140D01*
X194861Y196520D01*
X194079Y197689D01*
X192910Y198471D01*
X191530Y198745D01*
X185133D01*
X185030Y198766D01*
X176432D01*
X175938Y199690D01*
X175875Y200036D01*
X176144Y201390D01*
Y205203D01*
X177414Y205588D01*
X178525Y203925D01*
X180523Y202591D01*
X181610Y202374D01*
Y208280D01*
Y214186D01*
X180523Y213969D01*
X178525Y212635D01*
X177414Y210972D01*
X176144Y211357D01*
Y214390D01*
X175850Y215869D01*
X175012Y217122D01*
X173759Y217960D01*
X173550Y218002D01*
Y207890D01*
X171010D01*
Y218735D01*
X170906Y218800D01*
X170630Y220187D01*
X169844Y221364D01*
X169844Y221364D01*
X165124Y226084D01*
X164706Y226363D01*
X164566Y227466D01*
X165124Y228526D01*
X164569Y227550D01*
X165141Y228558D01*
X165124Y228526D01*
X165154Y228579D01*
X165278Y228773D01*
X165859Y229676D01*
X165910Y229753D01*
X166186Y231140D01*
X166520Y231474D01*
X179530D01*
X179626Y231474D01*
X180800Y231242D01*
Y231220D01*
X187070D01*
Y238760D01*
Y246300D01*
X180800D01*
Y246278D01*
X180800D01*
X179626Y246046D01*
X179530Y246046D01*
X165054D01*
Y242376D01*
X163713Y242110D01*
X163241Y241795D01*
X162536Y241324D01*
X162536Y241324D01*
X160329Y239117D01*
X159059Y239588D01*
Y249700D01*
X158649Y251763D01*
X157481Y253511D01*
X158131Y254604D01*
X158602Y255074D01*
X162894D01*
Y251414D01*
X177466D01*
Y265986D01*
X162894D01*
Y262326D01*
X157100D01*
X157100Y262326D01*
X155712Y262050D01*
X154536Y261264D01*
X151106Y257834D01*
X150320Y256658D01*
X150044Y255270D01*
X150044Y255270D01*
Y253635D01*
X149859Y253511D01*
X148691Y251763D01*
X148280Y249700D01*
Y236700D01*
X148691Y234638D01*
X149278Y233758D01*
X149029Y232504D01*
X148477Y231677D01*
X147753Y230707D01*
X147663Y230573D01*
X147153Y229908D01*
X146432Y228969D01*
X145446Y228296D01*
X144663Y228140D01*
X143486Y227354D01*
X143486Y227354D01*
X139716Y223584D01*
X138930Y222407D01*
X138654Y221020D01*
X138654Y221020D01*
Y218723D01*
X137673Y217917D01*
X137280Y217995D01*
X135900Y217721D01*
X134780Y216972D01*
X133660Y217721D01*
X132280Y217995D01*
X130900Y217721D01*
X130009Y217125D01*
X128759Y217960D01*
X128550Y218002D01*
Y207890D01*
Y197778D01*
X128759Y197820D01*
X130009Y198655D01*
X130900Y198059D01*
X132280Y197785D01*
X133660Y198059D01*
X134780Y198808D01*
X135900Y198059D01*
X137280Y197785D01*
X138660Y198059D01*
X139043Y198315D01*
X139677Y198056D01*
X139921Y197704D01*
X140174Y196561D01*
X139330Y195298D01*
X138881Y193040D01*
X139330Y190782D01*
X140609Y188869D01*
X142522Y187590D01*
X144780Y187141D01*
X145807Y187345D01*
X146705Y186447D01*
X146501Y185420D01*
X146950Y183162D01*
X148229Y181248D01*
X150142Y179970D01*
X152400Y179521D01*
X154658Y179970D01*
X156572Y181248D01*
X157850Y183162D01*
X158299Y185420D01*
X159003Y186514D01*
X174197D01*
X175003Y185533D01*
X174925Y185140D01*
X175199Y183760D01*
X175948Y182640D01*
X175199Y181520D01*
X174925Y180140D01*
X175199Y178760D01*
X175948Y177640D01*
X175199Y176520D01*
X174925Y175140D01*
X175169Y173911D01*
X175148Y173875D01*
X173838Y173560D01*
X173628Y173834D01*
X171844Y175203D01*
X169766Y176063D01*
X168807Y176189D01*
Y167743D01*
Y159297D01*
X169766Y159423D01*
X171844Y160283D01*
X173466Y161528D01*
X173960Y161584D01*
X175010Y161368D01*
X175127Y161158D01*
X174925Y160140D01*
X175199Y158760D01*
X175948Y157640D01*
X175199Y156520D01*
X174925Y155140D01*
X175199Y153760D01*
X175948Y152640D01*
X175199Y151520D01*
X174925Y150140D01*
X175199Y148760D01*
X175948Y147640D01*
X175199Y146520D01*
X174925Y145140D01*
X175199Y143760D01*
X175948Y142640D01*
X175199Y141520D01*
X174925Y140140D01*
X175199Y138760D01*
X175981Y137591D01*
X177150Y136809D01*
X178530Y136535D01*
X184632D01*
X184716Y135265D01*
X183257Y135073D01*
X181241Y134238D01*
X179510Y132910D01*
X178182Y131179D01*
X177347Y129163D01*
X177155Y127704D01*
X175885Y127788D01*
Y133890D01*
X175611Y135270D01*
X174829Y136439D01*
X173660Y137221D01*
X172280Y137495D01*
X170900Y137221D01*
X169780Y136472D01*
X168660Y137221D01*
X167280Y137495D01*
X165900Y137221D01*
X164780Y136472D01*
X163660Y137221D01*
X162280Y137495D01*
X160900Y137221D01*
X160009Y136625D01*
X158759Y137460D01*
X157837Y137643D01*
X156940Y138732D01*
X156859Y138966D01*
X156938Y139278D01*
X157198Y139330D01*
X159111Y140609D01*
X160390Y142522D01*
X160839Y144780D01*
X160390Y147038D01*
X159111Y148952D01*
X157198Y150230D01*
X154940Y150679D01*
X152682Y150230D01*
X150768Y148952D01*
X150495Y148542D01*
X149225D01*
X148952Y148952D01*
X147038Y150230D01*
X144780Y150679D01*
X142522Y150230D01*
X140609Y148952D01*
X140335Y148542D01*
X139065D01*
X138792Y148952D01*
X136878Y150230D01*
X135506Y150503D01*
X134706Y151893D01*
X135073Y152777D01*
X135358Y154940D01*
X135073Y157103D01*
X134238Y159119D01*
X133398Y160214D01*
X134303Y161120D01*
X135393Y160283D01*
X137471Y159423D01*
X138430Y159297D01*
Y166473D01*
X131253D01*
X131380Y165514D01*
X132240Y163436D01*
X133121Y162288D01*
X132216Y161382D01*
X131179Y162178D01*
X129163Y163013D01*
X127000Y163298D01*
X124837Y163013D01*
X122821Y162178D01*
X121090Y160850D01*
X119762Y159119D01*
X118927Y157103D01*
X118643Y154940D01*
X118927Y152777D01*
X119762Y150761D01*
X121090Y149030D01*
X121373Y148813D01*
Y141331D01*
X121748Y139448D01*
X122249Y138698D01*
X121614Y137363D01*
X120900Y137221D01*
X119780Y136472D01*
X118660Y137221D01*
X117280Y137495D01*
X115900Y137221D01*
X114731Y136439D01*
X113949Y135270D01*
X113675Y133890D01*
Y130275D01*
X112405Y129596D01*
X111577Y130149D01*
X110490Y130366D01*
Y124460D01*
X107950D01*
Y130722D01*
X107349Y131323D01*
X107499Y132080D01*
X107050Y134338D01*
X106431Y135265D01*
X107110Y136535D01*
X111030D01*
X112410Y136809D01*
X113579Y137591D01*
X114361Y138760D01*
X114635Y140140D01*
X114361Y141520D01*
X113765Y142411D01*
X114600Y143661D01*
X114642Y143870D01*
X104530D01*
Y146410D01*
X114642D01*
X114600Y146619D01*
X113765Y147869D01*
X114361Y148760D01*
X114635Y150140D01*
X114361Y151520D01*
X113765Y152411D01*
X114600Y153661D01*
X114642Y153870D01*
X104530D01*
Y156410D01*
X114642D01*
X114600Y156619D01*
X113765Y157869D01*
X114361Y158760D01*
X114635Y160140D01*
X114361Y161520D01*
X113612Y162640D01*
X114361Y163760D01*
X114635Y165140D01*
X114361Y166520D01*
X114368Y166536D01*
X115647Y166790D01*
X116824Y167576D01*
X117239Y167991D01*
X117242Y167994D01*
X118154Y168873D01*
X118716Y169248D01*
X119331Y169370D01*
X119380Y169361D01*
X121638Y169810D01*
X123552Y171089D01*
X124830Y173002D01*
X125279Y175260D01*
X124830Y177518D01*
X123552Y179431D01*
X123142Y179705D01*
Y180975D01*
X123552Y181248D01*
X124830Y183162D01*
X125279Y185420D01*
X124830Y187678D01*
X123552Y189592D01*
X121638Y190870D01*
X119380Y191319D01*
X117122Y190870D01*
X115855Y190023D01*
X115708Y190037D01*
X114531Y190666D01*
X114361Y191520D01*
X113612Y192640D01*
X114361Y193760D01*
X114635Y195140D01*
X114361Y196520D01*
X113579Y197689D01*
X113616Y198804D01*
X114731Y198841D01*
X115900Y198059D01*
X117280Y197785D01*
X118660Y198059D01*
X119780Y198808D01*
X120900Y198059D01*
X122280Y197785D01*
X123660Y198059D01*
X124551Y198655D01*
X125801Y197820D01*
X126010Y197778D01*
Y207890D01*
Y218002D01*
X125801Y217960D01*
X124551Y217125D01*
X123660Y217721D01*
X122280Y217995D01*
X120900Y217721D01*
X119780Y216972D01*
X118660Y217721D01*
X117280Y217995D01*
X115900Y217721D01*
X114731Y216939D01*
X113949Y215770D01*
X113675Y214390D01*
Y212612D01*
X112405Y212112D01*
X110987Y213200D01*
X108909Y214060D01*
X107950Y214186D01*
Y205740D01*
X105410D01*
Y214186D01*
X104451Y214060D01*
X102373Y213200D01*
X100589Y211831D01*
X99220Y210047D01*
X98616Y208588D01*
X97298Y208061D01*
X97093Y208079D01*
X96238Y208650D01*
X93980Y209099D01*
X91722Y208650D01*
X89809Y207372D01*
X88530Y205458D01*
X88081Y203200D01*
X88331Y201942D01*
X87525Y200960D01*
X85090D01*
Y193420D01*
X83820D01*
Y192150D01*
X76280D01*
Y185880D01*
X76302D01*
X76534Y184706D01*
X76534Y184706D01*
X76534Y184706D01*
Y170134D01*
X80180D01*
X80245Y170036D01*
X79566Y168766D01*
X69666D01*
Y170134D01*
X73326D01*
Y184610D01*
X73326Y184706D01*
X73558Y185880D01*
X73580D01*
Y192150D01*
X58500D01*
Y185880D01*
X58522D01*
Y185880D01*
X58754Y184706D01*
X58754Y184610D01*
Y170134D01*
X62414D01*
Y168766D01*
X42102D01*
X34173Y176694D01*
X34486Y179072D01*
X35752Y182129D01*
X37603Y184540D01*
X37816Y184704D01*
X39465Y186853D01*
X40501Y189355D01*
X40855Y192040D01*
X40501Y194725D01*
X39465Y197227D01*
X37816Y199376D01*
X35667Y201025D01*
X33165Y202061D01*
X30480Y202415D01*
X27795Y202061D01*
X25293Y201025D01*
X23144Y199376D01*
X21495Y197227D01*
X20459Y194725D01*
X20105Y192040D01*
X20459Y189355D01*
X21495Y186853D01*
X23144Y184704D01*
X23357Y184540D01*
X25208Y182129D01*
X26474Y179072D01*
X26743Y177027D01*
X26828Y175792D01*
X26854Y175260D01*
X26988Y174589D01*
X27130Y173873D01*
X27916Y172696D01*
X35643Y164969D01*
X35155Y163661D01*
X34293Y163490D01*
X33116Y162704D01*
X33116Y162704D01*
X27916Y157504D01*
X27130Y156327D01*
X27086Y156106D01*
X26835Y154940D01*
X26834D01*
X26623Y153757D01*
X26616Y153722D01*
X25926Y152689D01*
X25248Y152236D01*
X25266Y152205D01*
X23144Y150576D01*
X21495Y148427D01*
X20459Y145925D01*
X20105Y143240D01*
X20459Y140555D01*
X21495Y138053D01*
X23144Y135904D01*
X25293Y134255D01*
X27795Y133219D01*
X30480Y132865D01*
X33165Y133219D01*
X35667Y134255D01*
X37816Y135904D01*
X39465Y138053D01*
X40501Y140555D01*
X40855Y143240D01*
X40501Y145925D01*
X39465Y148427D01*
X37816Y150576D01*
X35694Y152205D01*
X35712Y152236D01*
X35034Y152689D01*
X34362Y153695D01*
X37182Y156514D01*
X57856D01*
X58754Y155616D01*
Y143050D01*
X58754Y142954D01*
X58522Y141780D01*
X58500D01*
Y135510D01*
X73580D01*
Y141780D01*
X73558D01*
Y141780D01*
X73326Y142954D01*
X73326Y143050D01*
Y156514D01*
X76534D01*
Y142954D01*
X76534Y142954D01*
X76534D01*
X76534Y142954D01*
X76302Y141780D01*
X76280D01*
Y135510D01*
X83820D01*
Y134240D01*
X85090D01*
Y126700D01*
X86893D01*
X87379Y125527D01*
X82318Y120466D01*
X76200D01*
X74812Y120190D01*
X74341Y119875D01*
X73636Y119404D01*
X73636Y119404D01*
X71096Y116864D01*
X70310Y115688D01*
X70034Y114300D01*
X68846Y113966D01*
X58374D01*
Y99394D01*
X71946D01*
Y103219D01*
X72508Y103330D01*
X73684Y104116D01*
X74201Y104633D01*
X75374Y104147D01*
Y99394D01*
X78034D01*
Y97084D01*
X77136Y96186D01*
X74470D01*
X74374Y96186D01*
X73200Y96418D01*
Y96440D01*
X66930D01*
Y88900D01*
Y81360D01*
X73200D01*
Y81382D01*
X73200D01*
X74374Y81614D01*
X74470Y81614D01*
X88946D01*
Y96186D01*
X85286D01*
Y99394D01*
X88946D01*
Y108252D01*
X89104Y108357D01*
X90601Y109855D01*
X91774Y109368D01*
Y100774D01*
X105594D01*
Y97346D01*
X91774D01*
Y83774D01*
X106346D01*
Y87043D01*
X107188Y87210D01*
X108364Y87996D01*
X111784Y91416D01*
X111784Y91416D01*
X112255Y92121D01*
X112570Y92592D01*
X112846Y93980D01*
X112846Y93980D01*
Y96238D01*
X114116Y96524D01*
X115209Y94888D01*
X117122Y93610D01*
X119380Y93161D01*
X121638Y93610D01*
X122128Y93937D01*
X122197Y93957D01*
X122694Y94212D01*
X122848Y94276D01*
X123031Y94341D01*
X123215Y94396D01*
X123402Y94441D01*
X123563Y94471D01*
X123829Y94498D01*
X126954D01*
Y81614D01*
X141430D01*
X141526Y81614D01*
X142700Y81382D01*
Y81360D01*
X148970D01*
Y88900D01*
Y96440D01*
X142700D01*
Y96418D01*
X142700D01*
X141526Y96186D01*
X141430Y96186D01*
X137297D01*
X136804Y96924D01*
X136804Y96924D01*
X135507Y98221D01*
X135993Y99394D01*
X140526D01*
Y112724D01*
X140526Y113966D01*
X140526Y113966D01*
X140411Y115168D01*
X140409Y115188D01*
X140405Y115236D01*
X140630Y115573D01*
X140906Y116960D01*
X142072Y117326D01*
X142280Y117285D01*
X143660Y117559D01*
X144620Y116673D01*
X144716Y116530D01*
X146010Y115236D01*
X145484Y113966D01*
X143954D01*
Y99394D01*
X157526D01*
Y113966D01*
X154366D01*
Y115633D01*
X154366Y115633D01*
X154109Y116923D01*
X154325Y117197D01*
X155107Y117783D01*
X155801Y117320D01*
X156010Y117278D01*
Y127390D01*
X158550D01*
Y117115D01*
X158654Y117120D01*
X158930Y115732D01*
X159716Y114556D01*
X162536Y111736D01*
X162536Y111736D01*
X163713Y110950D01*
X165100Y110674D01*
X165100Y110674D01*
X172720D01*
X172720Y110674D01*
X174107Y110950D01*
X175284Y111736D01*
X181928Y118381D01*
X183198D01*
X192631Y108948D01*
Y107346D01*
X187134D01*
Y90774D01*
X192631D01*
Y84246D01*
X186834D01*
Y66674D01*
X209406D01*
X209734Y65540D01*
Y56380D01*
X209406Y55246D01*
X186834D01*
Y52675D01*
X182174D01*
X177115Y57735D01*
X175099Y59082D01*
X174704Y59161D01*
X172720Y59555D01*
X148463D01*
X146084Y59082D01*
X144650Y58124D01*
X143937Y58419D01*
X141351Y58759D01*
X138765Y58419D01*
X136355Y57421D01*
X134286Y55833D01*
X132698Y53764D01*
X131700Y51354D01*
X131360Y48768D01*
Y43688D01*
X131700Y41102D01*
X132698Y38692D01*
X134286Y36623D01*
X136355Y35035D01*
X138765Y34037D01*
X141351Y33696D01*
X143937Y34037D01*
X146347Y35035D01*
X148416Y36623D01*
X150004Y38692D01*
X151002Y41102D01*
X151342Y43688D01*
Y47125D01*
X170145D01*
X171196Y46073D01*
X170477Y44997D01*
X169429Y45431D01*
X167005Y45750D01*
X164581Y45431D01*
X162322Y44495D01*
X160382Y43007D01*
X158894Y41067D01*
X157958Y38808D01*
X157639Y36384D01*
Y12384D01*
X157958Y9960D01*
X158894Y7701D01*
X160382Y5761D01*
X161510Y4896D01*
X161079Y3626D01*
X51773D01*
X51342Y4896D01*
X52470Y5761D01*
X53958Y7701D01*
X54894Y9960D01*
X55213Y12384D01*
Y36384D01*
X54894Y38808D01*
X54557Y39620D01*
Y45593D01*
X54261Y47847D01*
X53390Y49948D01*
X52006Y51752D01*
X45529Y58229D01*
X43725Y59614D01*
X41624Y60484D01*
X39370Y60781D01*
X34146D01*
Y73026D01*
X11574D01*
Y55454D01*
X12909D01*
Y48686D01*
X11574D01*
Y31114D01*
X34146D01*
Y43359D01*
X35762D01*
X37136Y41985D01*
Y39620D01*
X36800Y38808D01*
X36481Y36384D01*
Y12384D01*
X36800Y9960D01*
X37736Y7701D01*
X39224Y5761D01*
X40352Y4896D01*
X39921Y3626D01*
X34400D01*
Y9630D01*
X11320D01*
Y3626D01*
X3626D01*
Y355350D01*
X14195D01*
Y372890D01*
Y390430D01*
X3626D01*
Y395154D01*
X209734D01*
Y390430D01*
D02*
G37*
G36*
X177221Y40718D02*
X177616Y40639D01*
X179600Y40245D01*
X186834D01*
Y37674D01*
X194579D01*
X194770Y36713D01*
X195556Y35536D01*
X195914Y35178D01*
Y21034D01*
X195914Y21034D01*
X195914D01*
X195914Y21034D01*
X195682Y19860D01*
X195660D01*
Y13590D01*
X203200D01*
Y11050D01*
X195660D01*
Y4780D01*
X195660Y4780D01*
X195660D01*
X195660Y4780D01*
X195381Y3626D01*
X172931D01*
X172500Y4896D01*
X173628Y5761D01*
X175116Y7701D01*
X176052Y9960D01*
X176371Y12384D01*
Y36384D01*
X176052Y38808D01*
X175386Y40417D01*
X176411Y41259D01*
X177221Y40718D01*
D02*
G37*
%LPC*%
G36*
X73580Y132970D02*
X67310D01*
Y126700D01*
X73580D01*
Y132970D01*
D02*
G37*
G36*
X82550D02*
X76280D01*
Y126700D01*
X82550D01*
Y132970D01*
D02*
G37*
G36*
X21590Y163830D02*
X16954D01*
X17170Y162743D01*
X18505Y160745D01*
X20503Y159410D01*
X21590Y159194D01*
Y163830D01*
D02*
G37*
G36*
X64770Y132970D02*
X58500D01*
Y126700D01*
X64770D01*
Y132970D01*
D02*
G37*
G36*
X21590Y102280D02*
X11320D01*
Y94510D01*
X21590D01*
Y102280D01*
D02*
G37*
G36*
X64390Y96440D02*
X58120D01*
Y90170D01*
X64390D01*
Y96440D01*
D02*
G37*
G36*
X34400Y102280D02*
X24130D01*
Y94510D01*
X34400D01*
Y102280D01*
D02*
G37*
G36*
X183960Y107600D02*
X172690D01*
Y100330D01*
X183960D01*
Y107600D01*
D02*
G37*
G36*
X170150D02*
X158880D01*
Y100330D01*
X170150D01*
Y107600D01*
D02*
G37*
G36*
X28766Y163830D02*
X24130D01*
Y159194D01*
X25217Y159410D01*
X27215Y160745D01*
X28549Y162743D01*
X28766Y163830D01*
D02*
G37*
G36*
X166267Y176189D02*
X165308Y176063D01*
X163230Y175203D01*
X161446Y173834D01*
X160077Y172050D01*
X159217Y169972D01*
X159090Y169013D01*
X166267D01*
Y176189D01*
D02*
G37*
G36*
X140970D02*
Y169013D01*
X148146D01*
X148020Y169972D01*
X147160Y172050D01*
X145791Y173834D01*
X144007Y175203D01*
X141929Y176063D01*
X140970Y176189D01*
D02*
G37*
G36*
X82550Y200960D02*
X76280D01*
Y194690D01*
X82550D01*
Y200960D01*
D02*
G37*
G36*
X73580Y200960D02*
X67310D01*
Y194690D01*
X73580D01*
Y200960D01*
D02*
G37*
G36*
X64770D02*
X58500D01*
Y194690D01*
X64770D01*
Y200960D01*
D02*
G37*
G36*
X166267Y166473D02*
X159090D01*
X159217Y165514D01*
X160077Y163436D01*
X161446Y161652D01*
X163230Y160283D01*
X165308Y159423D01*
X166267Y159297D01*
Y166473D01*
D02*
G37*
G36*
X148146D02*
X140970D01*
Y159297D01*
X141929Y159423D01*
X144007Y160283D01*
X145791Y161652D01*
X147160Y163436D01*
X148020Y165514D01*
X148146Y166473D01*
D02*
G37*
G36*
X21590Y171006D02*
X20503Y170790D01*
X18505Y169455D01*
X17170Y167457D01*
X16954Y166370D01*
X21590D01*
Y171006D01*
D02*
G37*
G36*
X138430Y176189D02*
X137471Y176063D01*
X135393Y175203D01*
X133609Y173834D01*
X132240Y172050D01*
X131380Y169972D01*
X131253Y169013D01*
X138430D01*
Y176189D01*
D02*
G37*
G36*
X24130Y171006D02*
Y166370D01*
X28766D01*
X28549Y167457D01*
X27215Y169455D01*
X25217Y170790D01*
X24130Y171006D01*
D02*
G37*
G36*
X189230Y26226D02*
Y21590D01*
X193866D01*
X193650Y22677D01*
X192315Y24675D01*
X190317Y26010D01*
X189230Y26226D01*
D02*
G37*
G36*
X186690D02*
X185603Y26010D01*
X183605Y24675D01*
X182271Y22677D01*
X182054Y21590D01*
X186690D01*
Y26226D01*
D02*
G37*
G36*
X81749Y44958D02*
X72771D01*
Y33607D01*
X74153Y33790D01*
X76625Y34813D01*
X78747Y36442D01*
X80376Y38564D01*
X81399Y41036D01*
X81749Y43688D01*
Y44958D01*
D02*
G37*
G36*
X70231Y58849D02*
X68849Y58667D01*
X66377Y57643D01*
X64255Y56014D01*
X62626Y53892D01*
X61603Y51420D01*
X61253Y48768D01*
Y47498D01*
X61335D01*
X61823Y47511D01*
X62260Y47549D01*
X62646Y47612D01*
X62980Y47701D01*
X63263Y47815D01*
X63494Y47955D01*
X63674Y48120D01*
X63802Y48311D01*
X63879Y48527D01*
X63905Y48768D01*
X63905Y47498D01*
X70231D01*
Y58849D01*
D02*
G37*
G36*
Y44958D02*
X63905D01*
X63905Y43691D01*
X63879Y43932D01*
X63802Y44147D01*
X63674Y44337D01*
X63494Y44502D01*
X63263Y44641D01*
X62980Y44755D01*
X62646Y44844D01*
X62260Y44907D01*
X61823Y44945D01*
X61335Y44958D01*
X61253D01*
Y43688D01*
X61603Y41036D01*
X62626Y38564D01*
X64255Y36442D01*
X66377Y34813D01*
X68849Y33790D01*
X70231Y33607D01*
Y44958D01*
D02*
G37*
G36*
X129413Y34254D02*
X126858Y33918D01*
X124478Y32932D01*
X122434Y31363D01*
X120865Y29319D01*
X119879Y26939D01*
X119543Y24384D01*
X119879Y21829D01*
X120865Y19449D01*
X122434Y17405D01*
X124478Y15836D01*
X126858Y14850D01*
X129413Y14514D01*
X131968Y14850D01*
X134348Y15836D01*
X136392Y17405D01*
X137961Y19449D01*
X138947Y21829D01*
X139283Y24384D01*
X138947Y26939D01*
X137961Y29319D01*
X136392Y31363D01*
X134348Y32932D01*
X131968Y33918D01*
X129413Y34254D01*
D02*
G37*
G36*
X34400Y19940D02*
X24130D01*
Y12170D01*
X34400D01*
Y19940D01*
D02*
G37*
G36*
X21590D02*
X11320D01*
Y12170D01*
X21590D01*
Y19940D01*
D02*
G37*
G36*
X186690Y19050D02*
X182054D01*
X182271Y17963D01*
X183605Y15965D01*
X185603Y14631D01*
X186690Y14414D01*
Y19050D01*
D02*
G37*
G36*
X83947Y34254D02*
X81392Y33918D01*
X79012Y32932D01*
X76968Y31363D01*
X75399Y29319D01*
X74413Y26939D01*
X74077Y24384D01*
X74413Y21829D01*
X75399Y19449D01*
X76968Y17405D01*
X79012Y15836D01*
X81392Y14850D01*
X83947Y14514D01*
X86502Y14850D01*
X88882Y15836D01*
X90927Y17405D01*
X92495Y19449D01*
X93481Y21829D01*
X93817Y24384D01*
X93481Y26939D01*
X92495Y29319D01*
X90927Y31363D01*
X88882Y32932D01*
X86502Y33918D01*
X83947Y34254D01*
D02*
G37*
G36*
X193866Y19050D02*
X189230D01*
Y14414D01*
X190317Y14631D01*
X192315Y15965D01*
X193650Y17963D01*
X193866Y19050D01*
D02*
G37*
G36*
X157780Y87630D02*
X151510D01*
Y81360D01*
X157780D01*
Y87630D01*
D02*
G37*
G36*
X64390D02*
X58120D01*
Y81360D01*
X64390D01*
Y87630D01*
D02*
G37*
G36*
X183960Y97790D02*
X158880D01*
Y96850D01*
X157780Y96440D01*
X157610Y96440D01*
X151510D01*
Y90170D01*
X157942D01*
X158880Y90520D01*
X159050Y90520D01*
X166853D01*
X167105Y89250D01*
X165873Y88740D01*
X164089Y87371D01*
X162720Y85587D01*
X161860Y83509D01*
X161733Y82550D01*
X178626D01*
X178500Y83509D01*
X177640Y85587D01*
X176271Y87371D01*
X174487Y88740D01*
X173255Y89250D01*
X173507Y90520D01*
X183960D01*
Y97790D01*
D02*
G37*
G36*
X34400Y91970D02*
X24130D01*
Y84200D01*
X34400D01*
Y91970D01*
D02*
G37*
G36*
X21590D02*
X11320D01*
Y84200D01*
X21590D01*
Y91970D01*
D02*
G37*
G36*
X109220Y79559D02*
X106962Y79110D01*
X105456Y78104D01*
X104186Y78406D01*
Y78406D01*
X104186Y78406D01*
X90614D01*
Y63834D01*
X104186D01*
Y67494D01*
X106680D01*
X106680Y67494D01*
X108068Y67770D01*
X108321Y67940D01*
X109220Y67761D01*
X111478Y68210D01*
X113392Y69489D01*
X114670Y71402D01*
X115119Y73660D01*
X114670Y75918D01*
X113392Y77832D01*
X111478Y79110D01*
X109220Y79559D01*
D02*
G37*
G36*
X130366Y78406D02*
X116794D01*
Y63834D01*
X116794Y63834D01*
X116794D01*
X116147Y62854D01*
X113895Y60603D01*
X113109Y59426D01*
X112833Y58039D01*
X112833Y58039D01*
Y57988D01*
X111463Y57421D01*
X109394Y55833D01*
X107806Y53764D01*
X107113Y52091D01*
X105739D01*
X105046Y53764D01*
X103458Y55833D01*
X101389Y57421D01*
X98979Y58419D01*
X96393Y58759D01*
X93807Y58419D01*
X92177Y57744D01*
X92085Y57822D01*
X87286Y62621D01*
X87186Y63834D01*
X87186D01*
X87186Y63834D01*
Y78406D01*
X73614D01*
Y63834D01*
X76883D01*
X77050Y62993D01*
X77836Y61816D01*
X87008Y52645D01*
X87119Y52516D01*
X87186Y52426D01*
X86742Y51354D01*
X86402Y48768D01*
Y43688D01*
X86742Y41102D01*
X87740Y38692D01*
X89328Y36623D01*
X91397Y35035D01*
X93807Y34037D01*
X96393Y33696D01*
X98979Y34037D01*
X101389Y35035D01*
X103458Y36623D01*
X105046Y38692D01*
X105739Y40365D01*
X107113D01*
X107806Y38692D01*
X109394Y36623D01*
X111463Y35035D01*
X113873Y34037D01*
X116459Y33696D01*
X119045Y34037D01*
X121455Y35035D01*
X123524Y36623D01*
X125112Y38692D01*
X126110Y41102D01*
X126451Y43688D01*
Y48768D01*
X126110Y51354D01*
X125112Y53764D01*
X123524Y55833D01*
X122196Y56852D01*
X122029Y58482D01*
X126144Y62596D01*
X126144Y62596D01*
X126615Y63301D01*
X126930Y63773D01*
X126942Y63834D01*
X130366D01*
Y78406D01*
D02*
G37*
G36*
X72771Y58849D02*
Y47498D01*
X81749D01*
Y48768D01*
X81399Y51420D01*
X80376Y53892D01*
X78747Y56014D01*
X76625Y57643D01*
X74153Y58667D01*
X72771Y58849D01*
D02*
G37*
G36*
X147366Y78406D02*
X133794D01*
Y63834D01*
X147366D01*
Y66114D01*
X147392Y66139D01*
X148636Y66676D01*
X150142Y65670D01*
X152400Y65221D01*
X154658Y65670D01*
X156572Y66948D01*
X157850Y68862D01*
X158299Y71120D01*
X157850Y73378D01*
X156572Y75292D01*
X154658Y76570D01*
X152400Y77019D01*
X150142Y76570D01*
X148636Y75564D01*
X147392Y76101D01*
X147366Y76126D01*
Y78406D01*
D02*
G37*
G36*
X178626Y80010D02*
X171450D01*
Y72833D01*
X172409Y72960D01*
X174487Y73820D01*
X176271Y75189D01*
X177640Y76973D01*
X178500Y79051D01*
X178626Y80010D01*
D02*
G37*
G36*
X168910D02*
X161733D01*
X161860Y79051D01*
X162720Y76973D01*
X164089Y75189D01*
X165873Y73820D01*
X167951Y72960D01*
X168910Y72833D01*
Y80010D01*
D02*
G37*
G36*
X188786Y207010D02*
X184150D01*
Y202374D01*
X185237Y202591D01*
X187235Y203925D01*
X188570Y205923D01*
X188786Y207010D01*
D02*
G37*
G36*
X135185Y371620D02*
X123415D01*
Y355350D01*
X135185D01*
Y371620D01*
D02*
G37*
G36*
X120875D02*
X109105D01*
Y355350D01*
X120875D01*
Y371620D01*
D02*
G37*
G36*
X196625D02*
X184855D01*
Y355350D01*
X196625D01*
Y371620D01*
D02*
G37*
G36*
X52070Y372110D02*
X47434D01*
X47650Y371023D01*
X48985Y369025D01*
X50983Y367691D01*
X52070Y367474D01*
Y372110D01*
D02*
G37*
G36*
X165926D02*
X154114D01*
X154331Y371023D01*
X155665Y369025D01*
X157663Y367691D01*
X158380Y367548D01*
Y366253D01*
X157762Y366130D01*
X155849Y364851D01*
X154570Y362938D01*
X154317Y361669D01*
X153023D01*
X152770Y362938D01*
X151491Y364851D01*
X149578Y366130D01*
X147320Y366579D01*
X145062Y366130D01*
X143148Y364851D01*
X141870Y362938D01*
X141421Y360680D01*
X141870Y358422D01*
X143011Y356714D01*
X143047Y356628D01*
Y352767D01*
X143042D01*
X142913Y352455D01*
X142863Y352422D01*
X141474Y350343D01*
X140986Y347890D01*
Y338890D01*
X141474Y336437D01*
X142863Y334358D01*
X144942Y332969D01*
X147395Y332481D01*
X149848Y332969D01*
X151927Y334358D01*
X152901Y335816D01*
X154389D01*
X155363Y334358D01*
X157442Y332969D01*
X159895Y332481D01*
X162348Y332969D01*
X164427Y334358D01*
X164585Y334595D01*
X165855Y334209D01*
Y332350D01*
X171125D01*
Y343390D01*
Y354430D01*
X165855D01*
Y353746D01*
X164733Y353084D01*
X164585Y353085D01*
X164294Y353423D01*
X164293Y354463D01*
Y356628D01*
X164329Y356714D01*
X165470Y358422D01*
X165919Y360680D01*
X165470Y362938D01*
X164191Y364851D01*
X162278Y366130D01*
X161660Y366253D01*
Y367548D01*
X162377Y367691D01*
X164375Y369025D01*
X165709Y371023D01*
X165926Y372110D01*
D02*
G37*
G36*
X104255Y371620D02*
X92485D01*
Y355350D01*
X104255D01*
Y371620D01*
D02*
G37*
G36*
X178935Y354430D02*
X173665D01*
Y344660D01*
X178935D01*
Y354430D01*
D02*
G37*
G36*
X72255D02*
X66985D01*
Y344660D01*
X72255D01*
Y354430D01*
D02*
G37*
G36*
X64445D02*
X59175D01*
Y352571D01*
X57905Y352185D01*
X57747Y352422D01*
X55668Y353811D01*
X53215Y354299D01*
X50762Y353811D01*
X48683Y352422D01*
X47709Y350964D01*
X46221D01*
X45247Y352422D01*
X43168Y353811D01*
X40715Y354299D01*
X38262Y353811D01*
X36183Y352422D01*
X34794Y350343D01*
X34306Y347890D01*
Y338890D01*
X34794Y336437D01*
X36183Y334358D01*
X36233Y334325D01*
X36362Y334013D01*
X36367D01*
Y330200D01*
X36692Y328565D01*
X37618Y327178D01*
X42846Y321951D01*
Y285621D01*
X43171Y283986D01*
X44097Y282600D01*
X48618Y278079D01*
X48132Y276906D01*
X35894D01*
Y265246D01*
X30146D01*
Y276906D01*
X15574D01*
Y263334D01*
X19399D01*
X19510Y262773D01*
X20296Y261596D01*
X20813Y261079D01*
X20327Y259906D01*
X15574D01*
Y246334D01*
X19234D01*
Y243840D01*
X19234Y243840D01*
X19510Y242453D01*
X20296Y241276D01*
X22836Y238736D01*
X22836Y238736D01*
X23541Y238265D01*
X24012Y237950D01*
X25400Y237674D01*
X27636D01*
Y237667D01*
Y237650D01*
X28300Y237518D01*
X28821Y237171D01*
X28849Y237129D01*
X30762Y235850D01*
X33020Y235401D01*
X35278Y235850D01*
X37192Y237129D01*
X37220Y237171D01*
X37740Y237518D01*
X38404Y237650D01*
Y237667D01*
Y237674D01*
X40640D01*
X40640Y237674D01*
X42028Y237950D01*
X43204Y238736D01*
X45744Y241276D01*
X45744Y241276D01*
X46215Y241981D01*
X46530Y242453D01*
X46806Y243840D01*
Y246334D01*
X50466D01*
Y257994D01*
X72158D01*
X73844Y256308D01*
Y253635D01*
X73659Y253511D01*
X72491Y251763D01*
X72080Y249700D01*
Y236700D01*
X72491Y234638D01*
X73121Y233694D01*
X73659Y232889D01*
X73659Y232889D01*
X73820Y232714D01*
X73688Y232050D01*
X73341Y231530D01*
X73299Y231502D01*
X72020Y229588D01*
X71767Y228319D01*
X70473D01*
X70220Y229588D01*
X68941Y231502D01*
X68899Y231530D01*
X68552Y232050D01*
X68420Y232714D01*
X68581Y232889D01*
X68581Y232889D01*
X69119Y233694D01*
X69749Y234638D01*
X70160Y236700D01*
Y249700D01*
X69749Y251763D01*
X68581Y253511D01*
X66832Y254679D01*
X64770Y255089D01*
X62708Y254679D01*
X60959Y253511D01*
X59791Y251763D01*
X59380Y249700D01*
Y236700D01*
X59791Y234638D01*
X60421Y233694D01*
X60959Y232889D01*
X60959Y232889D01*
X61120Y232714D01*
X60988Y232050D01*
X60641Y231530D01*
X60599Y231502D01*
X59320Y229588D01*
X58871Y227330D01*
X59320Y225072D01*
X60599Y223158D01*
X62512Y221880D01*
X64770Y221431D01*
X67028Y221880D01*
X68941Y223158D01*
X70220Y225072D01*
X70473Y226341D01*
X71767D01*
X72020Y225072D01*
X73299Y223158D01*
X75212Y221880D01*
X77470Y221431D01*
X79728Y221880D01*
X81642Y223158D01*
X82920Y225072D01*
X83369Y227330D01*
X82920Y229588D01*
X81642Y231502D01*
X81600Y231530D01*
X81252Y232050D01*
X81120Y232714D01*
X81281Y232889D01*
X81281Y232889D01*
X81819Y233694D01*
X82449Y234638D01*
X82859Y236700D01*
Y249700D01*
X82449Y251763D01*
X81281Y253511D01*
X81096Y253635D01*
Y257421D01*
X82098Y257953D01*
X82327Y257986D01*
X85709Y254604D01*
X86359Y253511D01*
X85191Y251763D01*
X84781Y249700D01*
Y236700D01*
X85191Y234638D01*
X86359Y232889D01*
X86544Y232765D01*
Y229148D01*
X85990Y228318D01*
X85541Y226060D01*
X85990Y223802D01*
X87268Y221889D01*
X89182Y220610D01*
X91440Y220161D01*
X93698Y220610D01*
X95611Y221889D01*
X96890Y223802D01*
X97339Y226060D01*
X96890Y228318D01*
X95611Y230231D01*
X95389Y230380D01*
X94203Y232154D01*
X94040Y232977D01*
X95149Y234638D01*
X95560Y236700D01*
Y249700D01*
X95149Y251763D01*
X93981Y253511D01*
X93796Y253635D01*
Y255270D01*
X93796Y255270D01*
X93520Y256658D01*
X92734Y257834D01*
X92734Y257834D01*
X77884Y272684D01*
X77547Y272908D01*
X77376Y274533D01*
X80492Y277648D01*
X81418Y279035D01*
X81718Y280543D01*
X82449Y281637D01*
X82859Y283700D01*
Y296700D01*
X82449Y298762D01*
X81281Y300511D01*
X79532Y301679D01*
X77470Y302090D01*
X75408Y301679D01*
X73659Y300511D01*
X72491Y298762D01*
X72080Y296700D01*
Y283700D01*
X72427Y281956D01*
X71540Y281005D01*
X70595Y281083D01*
X69852Y282155D01*
X70160Y283700D01*
Y296700D01*
X69749Y298762D01*
X68581Y300511D01*
X66832Y301679D01*
X64770Y302090D01*
X62708Y301679D01*
X60959Y300511D01*
X59791Y298762D01*
X59395Y296771D01*
X59116Y296603D01*
X58135Y296242D01*
X57488Y296756D01*
Y333419D01*
X57905Y333810D01*
X59175Y333259D01*
Y332350D01*
X64445D01*
Y343390D01*
Y354430D01*
D02*
G37*
G36*
X89945Y371620D02*
X78175D01*
Y355350D01*
X89945D01*
Y371620D01*
D02*
G37*
G36*
X28505D02*
X16735D01*
Y355350D01*
X28505D01*
Y371620D01*
D02*
G37*
G36*
X52070Y379286D02*
X50983Y379070D01*
X48985Y377735D01*
X47650Y375737D01*
X47434Y374650D01*
X52070D01*
Y379286D01*
D02*
G37*
G36*
X196625Y390430D02*
X184855D01*
Y374160D01*
X196625D01*
Y390430D01*
D02*
G37*
G36*
X54610Y379286D02*
Y374650D01*
X59246D01*
X59029Y375737D01*
X57695Y377735D01*
X55697Y379070D01*
X54610Y379286D01*
D02*
G37*
G36*
X161290D02*
Y374650D01*
X165926D01*
X165709Y375737D01*
X164375Y377735D01*
X162377Y379070D01*
X161290Y379286D01*
D02*
G37*
G36*
X158750D02*
X157663Y379070D01*
X155665Y377735D01*
X154331Y375737D01*
X154114Y374650D01*
X158750D01*
Y379286D01*
D02*
G37*
G36*
X135185Y390430D02*
X123415D01*
Y374160D01*
X135185D01*
Y390430D01*
D02*
G37*
G36*
X28505D02*
X16735D01*
Y374160D01*
X28505D01*
Y390430D01*
D02*
G37*
G36*
X59246Y372110D02*
X54610D01*
Y367474D01*
X55697Y367691D01*
X57695Y369025D01*
X59029Y371023D01*
X59246Y372110D01*
D02*
G37*
G36*
X89945Y390430D02*
X78175D01*
Y374160D01*
X89945D01*
Y390430D01*
D02*
G37*
G36*
X120875D02*
X109105D01*
Y374160D01*
X120875D01*
Y390430D01*
D02*
G37*
G36*
X104255D02*
X92485D01*
Y374160D01*
X104255D01*
Y390430D01*
D02*
G37*
G36*
X178935Y342120D02*
X173665D01*
Y332350D01*
X178935D01*
Y342120D01*
D02*
G37*
G36*
X97790Y265430D02*
X93154D01*
X93371Y264343D01*
X94705Y262345D01*
X96703Y261010D01*
X97790Y260794D01*
Y265430D01*
D02*
G37*
G36*
X142240Y255096D02*
Y244470D01*
X146618D01*
Y249700D01*
X146189Y251862D01*
X144964Y253694D01*
X143132Y254918D01*
X142240Y255096D01*
D02*
G37*
G36*
X139700D02*
X138808Y254918D01*
X136976Y253694D01*
X135751Y251862D01*
X135322Y249700D01*
Y244470D01*
X139700D01*
Y255096D01*
D02*
G37*
G36*
X97790Y272606D02*
X96703Y272390D01*
X94705Y271055D01*
X93371Y269057D01*
X93154Y267970D01*
X97790D01*
Y272606D01*
D02*
G37*
G36*
X140970Y302090D02*
X138907Y301679D01*
X137159Y300511D01*
X135991Y298762D01*
X135581Y296700D01*
Y283700D01*
X135991Y281637D01*
X137159Y279889D01*
X137344Y279765D01*
Y278890D01*
X137344Y278890D01*
X137620Y277502D01*
X138406Y276326D01*
X145516Y269216D01*
X145516Y269216D01*
X146692Y268430D01*
X148080Y268154D01*
X148080Y268154D01*
X157480D01*
X157480Y268154D01*
X158868Y268430D01*
X160044Y269216D01*
X161624Y270797D01*
X162894Y270404D01*
Y267414D01*
X177466D01*
Y281986D01*
X162894D01*
Y278326D01*
X160400D01*
X160400Y278326D01*
X159012Y278050D01*
X157836Y277264D01*
X155978Y275406D01*
X149582D01*
X144908Y280079D01*
X145949Y281637D01*
X146360Y283700D01*
Y296700D01*
X145949Y298762D01*
X144781Y300511D01*
X143033Y301679D01*
X140970Y302090D01*
D02*
G37*
G36*
X104966Y265430D02*
X100330D01*
Y260794D01*
X101417Y261010D01*
X103415Y262345D01*
X104749Y264343D01*
X104966Y265430D01*
D02*
G37*
G36*
X195880Y237490D02*
X189610D01*
Y231220D01*
X195880D01*
Y237490D01*
D02*
G37*
G36*
X102870Y255089D02*
X100808Y254679D01*
X99059Y253511D01*
X97891Y251763D01*
X97480Y249700D01*
Y236700D01*
X97891Y234638D01*
X99059Y232889D01*
X99174Y231583D01*
X98690Y230858D01*
X98241Y228600D01*
X98690Y226342D01*
X99969Y224429D01*
X101882Y223150D01*
X104140Y222701D01*
X106398Y223150D01*
X108312Y224429D01*
X109590Y226342D01*
X110039Y228600D01*
X109590Y230858D01*
X108312Y232771D01*
X108089Y232920D01*
X107395Y233958D01*
X107849Y234638D01*
X108259Y236700D01*
Y249700D01*
X107849Y251763D01*
X106681Y253511D01*
X104932Y254679D01*
X102870Y255089D01*
D02*
G37*
G36*
X184150Y214186D02*
Y209550D01*
X188786D01*
X188570Y210637D01*
X187235Y212635D01*
X185237Y213969D01*
X184150Y214186D01*
D02*
G37*
G36*
X195880Y246300D02*
X189610D01*
Y240030D01*
X195880D01*
Y246300D01*
D02*
G37*
G36*
X146618Y241930D02*
X142240D01*
Y231304D01*
X143132Y231481D01*
X144964Y232706D01*
X146189Y234538D01*
X146618Y236700D01*
Y241930D01*
D02*
G37*
G36*
X139700D02*
X135322D01*
Y236700D01*
X135751Y234538D01*
X136976Y232706D01*
X138808Y231481D01*
X139700Y231304D01*
Y241930D01*
D02*
G37*
G36*
X100330Y272606D02*
Y267970D01*
X104966D01*
X104749Y269057D01*
X103415Y271055D01*
X101417Y272390D01*
X100330Y272606D01*
D02*
G37*
G36*
X124506Y319706D02*
X109934D01*
Y305134D01*
X110969D01*
X112011Y303864D01*
X111944Y303530D01*
X111944Y303530D01*
Y300635D01*
X111759Y300511D01*
X110591Y298762D01*
X110181Y296700D01*
Y283700D01*
X110591Y281637D01*
X111759Y279889D01*
X113507Y278721D01*
X115570Y278311D01*
X117633Y278721D01*
X119381Y279889D01*
X120549Y281637D01*
X120960Y283700D01*
Y296700D01*
X120549Y298762D01*
X119381Y300511D01*
X119196Y300635D01*
Y302028D01*
X119404Y302236D01*
X119404Y302236D01*
X120190Y303412D01*
X120466Y304800D01*
X121654Y305134D01*
X124506D01*
Y319706D01*
D02*
G37*
G36*
X141526D02*
X126954D01*
Y305134D01*
X126954Y305134D01*
X126954D01*
X126307Y304154D01*
X125706Y303554D01*
X124920Y302377D01*
X124644Y300990D01*
X124644Y300990D01*
Y300635D01*
X124459Y300511D01*
X123291Y298762D01*
X122880Y296700D01*
Y283700D01*
X123291Y281637D01*
X124459Y279889D01*
X126208Y278721D01*
X128270Y278311D01*
X130332Y278721D01*
X132081Y279889D01*
X133249Y281637D01*
X133659Y283700D01*
Y296700D01*
X133249Y298762D01*
X132416Y300009D01*
X136804Y304396D01*
X136804Y304396D01*
X137297Y305134D01*
X141526D01*
Y319706D01*
D02*
G37*
G36*
X66930Y311150D02*
X60660D01*
Y304880D01*
X66930D01*
Y311150D01*
D02*
G37*
G36*
X157526Y319706D02*
X142954D01*
Y305134D01*
X145046D01*
X146234Y304800D01*
X146510Y303412D01*
X147296Y302236D01*
X149524Y300009D01*
X148691Y298762D01*
X148280Y296700D01*
Y283700D01*
X148691Y281637D01*
X149859Y279889D01*
X151608Y278721D01*
X153670Y278311D01*
X155732Y278721D01*
X157481Y279889D01*
X158649Y281637D01*
X159059Y283700D01*
Y296700D01*
X158649Y298762D01*
X157481Y300511D01*
X157296Y300635D01*
Y300990D01*
X157296Y300990D01*
X157020Y302377D01*
X156234Y303554D01*
X155827Y303961D01*
X156313Y305134D01*
X157526D01*
Y319706D01*
D02*
G37*
G36*
X108506D02*
X93934D01*
Y305134D01*
X97594D01*
Y302640D01*
X97594Y302640D01*
X97870Y301252D01*
X98656Y300076D01*
X98724Y300009D01*
X97891Y298762D01*
X97480Y296700D01*
Y283700D01*
X97891Y281637D01*
X99059Y279889D01*
X100808Y278721D01*
X102870Y278311D01*
X104932Y278721D01*
X106681Y279889D01*
X107849Y281637D01*
X108259Y283700D01*
Y296700D01*
X107849Y298762D01*
X106681Y300511D01*
X106496Y300635D01*
Y300990D01*
X106496Y300990D01*
X106220Y302377D01*
X105434Y303554D01*
X105434Y303554D01*
X105124Y303864D01*
X105516Y305134D01*
X108506D01*
Y319706D01*
D02*
G37*
G36*
X72255Y342120D02*
X66985D01*
Y332350D01*
X72255D01*
Y342120D01*
D02*
G37*
G36*
X137160Y272599D02*
X134902Y272150D01*
X133273Y271061D01*
X133231Y271044D01*
X121991D01*
X121991Y271044D01*
X120356Y270719D01*
X118969Y269793D01*
X118969Y269792D01*
X112548Y263372D01*
X111622Y261985D01*
X111297Y260350D01*
Y252819D01*
X110591Y251763D01*
X110181Y249700D01*
Y236700D01*
X110591Y234638D01*
X111759Y232889D01*
X113507Y231721D01*
X115570Y231311D01*
X117633Y231721D01*
X119381Y232889D01*
X120549Y234638D01*
X120960Y236700D01*
Y249700D01*
X120549Y251763D01*
X119843Y252819D01*
Y258580D01*
X122843Y261580D01*
X124014Y260954D01*
X123641Y259080D01*
X123997Y257289D01*
Y252819D01*
X123291Y251763D01*
X122880Y249700D01*
Y236700D01*
X123291Y234638D01*
X124459Y232889D01*
X126208Y231721D01*
X128270Y231311D01*
X130332Y231721D01*
X132081Y232889D01*
X133249Y234638D01*
X133659Y236700D01*
Y249700D01*
X133249Y251763D01*
X132620Y252705D01*
X132812Y253673D01*
X133579Y254820D01*
X133712Y254909D01*
X134990Y256822D01*
X135439Y259080D01*
X135235Y260107D01*
X136133Y261005D01*
X137160Y260801D01*
X139418Y261250D01*
X141332Y262528D01*
X142610Y264442D01*
X143059Y266700D01*
X142610Y268958D01*
X141332Y270872D01*
X139418Y272150D01*
X137160Y272599D01*
D02*
G37*
G36*
X75740Y319960D02*
X69470D01*
Y312420D01*
Y304880D01*
X75740D01*
Y304902D01*
X76914Y305134D01*
X77010Y305134D01*
X81143D01*
X81636Y304396D01*
X86024Y300009D01*
X85191Y298762D01*
X84781Y296700D01*
Y283700D01*
X85191Y281637D01*
X86359Y279889D01*
X88108Y278721D01*
X90170Y278311D01*
X92233Y278721D01*
X93981Y279889D01*
X95149Y281637D01*
X95560Y283700D01*
Y296700D01*
X95149Y298762D01*
X93981Y300511D01*
X93796Y300635D01*
Y300990D01*
X93520Y302377D01*
X93205Y302849D01*
X92734Y303554D01*
X92734Y303554D01*
X92133Y304155D01*
X91486Y305134D01*
X91486D01*
X91486Y305134D01*
Y319706D01*
X77010D01*
X76914Y319706D01*
X75740Y319938D01*
Y319960D01*
D02*
G37*
G36*
X66930D02*
X60660D01*
Y313690D01*
X66930D01*
Y319960D01*
D02*
G37*
%LPD*%
G36*
X90379Y56215D02*
X90753Y55894D01*
X91103Y55633D01*
X91430Y55431D01*
X91733Y55289D01*
X92012Y55206D01*
X92268Y55182D01*
X92499Y55218D01*
X92707Y55313D01*
X92892Y55468D01*
X89428Y51772D01*
X89571Y51968D01*
X89656Y52186D01*
X89683Y52428D01*
X89650Y52691D01*
X89560Y52978D01*
X89411Y53288D01*
X89204Y53620D01*
X88938Y53975D01*
X88613Y54353D01*
X88230Y54753D01*
X89982Y56595D01*
X90379Y56215D01*
D02*
G37*
G36*
X117733Y57684D02*
X117788Y56843D01*
X117821Y56638D01*
X117861Y56470D01*
X117908Y56339D01*
X117963Y56246D01*
X118025Y56190D01*
X118095Y56171D01*
X114823D01*
X114893Y56190D01*
X114955Y56246D01*
X115010Y56339D01*
X115057Y56470D01*
X115098Y56638D01*
X115131Y56843D01*
X115156Y57086D01*
X115185Y57684D01*
X115189Y58039D01*
X117729D01*
X117733Y57684D01*
D02*
G37*
G36*
X149901Y68670D02*
X149664Y68894D01*
X149416Y69095D01*
X149157Y69272D01*
X148887Y69425D01*
X148607Y69555D01*
X148315Y69661D01*
X148012Y69744D01*
X147699Y69803D01*
X147374Y69838D01*
X147038Y69850D01*
Y72390D01*
X147374Y72402D01*
X147699Y72437D01*
X148012Y72496D01*
X148315Y72579D01*
X148607Y72685D01*
X148887Y72815D01*
X149157Y72968D01*
X149416Y73145D01*
X149664Y73346D01*
X149901Y73570D01*
Y68670D01*
D02*
G37*
D10*
X63193Y228907D02*
G03*
X64770Y232714I-3807J3807D01*
G01*
D02*
G03*
X66347Y228907I5384J0D01*
G01*
X174325Y345320D02*
G03*
X178986Y343390I4660J4660D01*
G01*
D02*
G03*
X174325Y341460I0J-6591D01*
G01*
X63785Y349820D02*
G03*
X65715Y354481I-4660J4660D01*
G01*
D02*
G03*
X67645Y349820I6591J0D01*
G01*
X33443Y189077D02*
G03*
X30480Y181924I7153J-7153D01*
G01*
X35239Y187281D02*
G03*
X30480Y175792I11489J-11489D01*
G01*
Y181924D02*
G03*
X27517Y189077I-10115J0D01*
G01*
X30480Y175792D02*
G03*
X25721Y187281I-16248J0D01*
G01*
X27097Y149058D02*
G03*
X30480Y154939I-3421J5882D01*
G01*
D02*
G03*
X33863Y149058I6804J0D01*
G01*
X169086Y166194D02*
G03*
X165100Y156573I9622J-9622D01*
G01*
X170882Y164398D02*
G03*
X165100Y150440I13958J-13958D01*
G01*
Y162207D02*
G03*
X164192Y164398I-3099J0D01*
G01*
X181303Y206703D02*
G03*
X178438Y207890I-2865J-2865D01*
G01*
X176555D02*
G03*
X181303Y209857I0J6715D01*
G01*
X154313Y142640D02*
G03*
X152280Y142120I-578J-1975D01*
G01*
D02*
G03*
X152800Y144153I-1455J1455D01*
G01*
X146882Y144036D02*
G03*
X147280Y142280I1591J-563D01*
G01*
D02*
G03*
X145524Y142678I-1193J-1193D01*
G01*
X136850Y144780D02*
G03*
X138427Y140973I5384J0D01*
G01*
X138427Y140973D02*
G03*
X134620Y142550I-3807J-3807D01*
G01*
X149431Y222691D02*
G03*
X146050Y224790I-3381J-1674D01*
G01*
D02*
G03*
X149431Y226889I0J3773D01*
G01*
X158057Y226559D02*
G03*
X162560Y223520I4503J1816D01*
G01*
X162023D02*
G03*
X157015Y221445I0J-7083D01*
G01*
X154325Y226880D02*
G03*
X159594Y228174I1566J4997D01*
G01*
X155084Y229304D02*
G03*
X162560Y231140I2222J7090D01*
G01*
X159949Y228528D02*
G03*
X158400Y224790I3738J-3738D01*
G01*
X119380Y173030D02*
G03*
X115573Y171453I0J-5384D01*
G01*
X115573Y171453D02*
G03*
X117150Y175260I-3807J3807D01*
G01*
X136355Y164398D02*
G03*
X128530Y167640I-7826J-7826D01*
G01*
X128032D02*
G03*
X136355Y171088I0J11771D01*
G01*
X158761Y78740D02*
G03*
X168631Y82829I0J13959D01*
G01*
X152629Y78740D02*
G03*
X166835Y84625I0J20091D01*
G01*
X158443Y371803D02*
G03*
X155819Y372890I-2624J-2624D01*
G01*
X153453D02*
G03*
X158443Y374957I0J7057D01*
G01*
X161597D02*
G03*
X166587Y372890I4990J4990D01*
G01*
X164221D02*
G03*
X161597Y371803I0J-3711D01*
G01*
X51763D02*
G03*
X49139Y372890I-2624J-2624D01*
G01*
X46773D02*
G03*
X51763Y374957I0J7057D01*
G01*
X54917D02*
G03*
X59907Y372890I4990J4990D01*
G01*
X57541D02*
G03*
X54917Y371803I0J-3711D01*
G01*
X149101Y195140D02*
G03*
X144561Y193259I0J-6421D01*
G01*
X155234Y195140D02*
G03*
X146357Y191463I0J-12554D01*
G01*
X152400Y187650D02*
G03*
X156207Y189227I0J5384D01*
G01*
X156207Y189227D02*
G03*
X154630Y185420I3807J-3807D01*
G01*
X90170Y234510D02*
G03*
X93017Y227637I9720J0D01*
G01*
X102870Y237050D02*
G03*
X105717Y230177I9720J0D01*
G01*
X117803Y183843D02*
G03*
X114672Y185140I-3131J-3131D01*
G01*
X113320D02*
G03*
X117803Y186997I0J6340D01*
G01*
X95557Y201623D02*
G03*
X93224Y195991I5632J-5632D01*
G01*
Y199641D02*
G03*
X92403Y201623I-2803J0D01*
G01*
X63193Y228907D02*
G03*
X64770Y232714I-3807J3807D01*
G01*
D02*
G03*
X66347Y228907I5384J0D01*
G01*
X75893D02*
G03*
X77470Y232714I-3807J3807D01*
G01*
D02*
G03*
X79047Y228907I5384J0D01*
G01*
X31443Y239723D02*
G03*
X27636Y241300I-3807J-3807D01*
G01*
D02*
G03*
X31443Y242877I0J5384D01*
G01*
X34597D02*
G03*
X38404Y241300I3807J3807D01*
G01*
D02*
G03*
X34597Y239723I0J-5384D01*
G01*
X140580Y71120D02*
X152400D01*
X46460Y93240D02*
X48260Y91440D01*
X22860Y93240D02*
X46460D01*
X6880D02*
X22860D01*
X4826Y91186D02*
X6880Y93240D01*
X4826Y17780D02*
Y91186D01*
Y17780D02*
X9420Y13186D01*
Y10900D02*
Y13186D01*
X57150Y49530D02*
Y59690D01*
Y49530D02*
X60452Y46228D01*
X71501D01*
X106680Y71120D02*
X109220Y73660D01*
X97400Y71120D02*
X106680D01*
X123580Y65160D02*
Y71120D01*
X116459Y58039D02*
X123580Y65160D01*
X116459Y46228D02*
Y58039D01*
X96393Y46228D02*
Y48387D01*
X80400Y64380D02*
X96393Y48387D01*
X80400Y64380D02*
Y71120D01*
X119380Y99060D02*
X120316Y98124D01*
X130476D01*
X134240Y94360D01*
Y88900D02*
Y94360D01*
X198120Y137160D02*
Y142240D01*
X187960Y127000D02*
X198120Y137160D01*
X185420Y127000D02*
X187960D01*
X172720Y114300D02*
X185420Y127000D01*
X165100Y114300D02*
X172720D01*
X165100Y165100D02*
X167640Y167640D01*
X172280Y207890D02*
X182490D01*
X197895Y342900D02*
Y372890D01*
Y241075D02*
Y342900D01*
X197405Y343390D02*
X197895Y342900D01*
X188340Y238760D02*
X195580D01*
X197895Y241075D01*
X140970Y278890D02*
Y290200D01*
X77470Y243200D02*
Y257810D01*
X73660Y261620D02*
X77470Y257810D01*
X25400Y261620D02*
X73660D01*
X90170Y243200D02*
Y255270D01*
X75320Y270120D02*
X90170Y255270D01*
X43180Y270120D02*
X75320D01*
X22860Y264160D02*
Y270120D01*
Y264160D02*
X25400Y261620D01*
Y241300D02*
X33020D01*
X22860Y243840D02*
X25400Y241300D01*
X22860Y243840D02*
Y253120D01*
X33020Y241300D02*
X40640D01*
X43180Y243840D01*
Y253120D01*
X90170Y227330D02*
X91440Y226060D01*
X90170Y227330D02*
Y243200D01*
X102870Y229870D02*
X104140Y228600D01*
X102870Y229870D02*
Y243200D01*
X77470Y227330D02*
Y243200D01*
X64770Y227330D02*
Y243200D01*
X93224Y202444D02*
X93980Y203200D01*
X93224Y183149D02*
Y202444D01*
Y183149D02*
X96233Y180140D01*
X104530D01*
X119100Y185140D02*
X119380Y185420D01*
X104530Y185140D02*
X119100D01*
X83820Y193420D02*
Y215900D01*
X144780Y193040D02*
X146880Y195140D01*
X185030D01*
X152400Y185420D02*
X157120Y190140D01*
X185030D01*
X114260Y170140D02*
X119380Y175260D01*
X104530Y170140D02*
X114260D01*
X124460Y167640D02*
X127000D01*
X116640Y159820D02*
X124460Y167640D01*
X116640Y155140D02*
Y159820D01*
X132080Y226060D02*
X137160D01*
X140970Y229870D01*
Y243200D01*
X84200Y306960D02*
X90170Y300990D01*
Y290200D02*
Y300990D01*
X84200Y306960D02*
Y312420D01*
X101220Y302640D02*
Y312420D01*
Y302640D02*
X102870Y300990D01*
Y290200D02*
Y300990D01*
X116840Y312040D02*
X117220Y312420D01*
X116840Y304800D02*
Y312040D01*
X115570Y303530D02*
X116840Y304800D01*
X115570Y290200D02*
Y303530D01*
X128270Y290200D02*
Y300990D01*
X134240Y306960D01*
Y312420D01*
X149860Y312040D02*
X150240Y312420D01*
X149860Y304800D02*
Y312040D01*
Y304800D02*
X153670Y300990D01*
Y290200D02*
Y300990D01*
X66040Y372890D02*
X91215D01*
X15465D02*
X66040D01*
X65715Y372565D02*
X66040Y372890D01*
X122145D02*
X197895D01*
X91215D02*
X122145D01*
X139597Y167640D02*
X139700Y167743D01*
X127000Y167640D02*
X139597D01*
X152400Y78740D02*
X167640D01*
X150240Y80900D02*
X152400Y78740D01*
X150240Y80900D02*
Y88900D01*
X167640Y78740D02*
X170180Y81280D01*
X198120Y38100D02*
Y46460D01*
Y38100D02*
X203200Y33020D01*
Y28320D02*
Y33020D01*
X170180Y81280D02*
X171420Y82520D01*
X187960Y20320D02*
X195960Y12320D01*
X203200D01*
X150740Y106680D02*
Y115633D01*
X147280Y119093D02*
X150740Y115633D01*
X147280Y119093D02*
Y127390D01*
X133740Y106680D02*
X134620Y107560D01*
Y114300D01*
X137280Y116960D01*
Y127390D01*
X66040Y193420D02*
Y210820D01*
X15240Y345440D02*
X15465Y345665D01*
Y372890D01*
X48260Y91440D02*
X50800Y88900D01*
X65660D01*
X66040Y124460D02*
X68580Y121920D01*
X66040Y124460D02*
Y134240D01*
X68580Y121920D02*
X78740D01*
X83820Y127000D01*
Y134240D01*
X48260Y68580D02*
X57150Y59690D01*
X165100Y144780D02*
Y165100D01*
X157280Y136960D02*
X165100Y144780D01*
X157280Y127390D02*
Y136960D01*
X184990Y165100D02*
X185030Y165140D01*
X170180Y165100D02*
X184990D01*
X167640Y167640D02*
X170180Y165100D01*
X153670Y255270D02*
X157100Y258700D01*
X170180D01*
X153670Y243200D02*
Y255270D01*
X146050Y224790D02*
X153670D01*
X142280Y221020D02*
X146050Y224790D01*
X142280Y207890D02*
Y221020D01*
X153670Y224790D02*
X154940Y223520D01*
X162560D01*
X167280Y218800D01*
Y207890D02*
Y218800D01*
X153670Y224790D02*
X156210D01*
X162560Y231140D01*
Y236220D01*
X165100Y238760D01*
X172340D01*
X127000Y167640D02*
X127280Y167920D01*
Y207890D01*
X116840Y147320D02*
Y154940D01*
X116640Y155140D02*
X116840Y154940D01*
X104530Y155140D02*
X116640D01*
X114660Y145140D02*
X116840Y147320D01*
X104530Y145140D02*
X114660D01*
X83820Y172720D02*
Y177420D01*
Y172720D02*
X86400Y170140D01*
X104530D01*
X83820Y116840D02*
X92376Y125396D01*
X76200Y116840D02*
X83820D01*
X73660Y114300D02*
X76200Y116840D01*
X92376Y125396D02*
Y148924D01*
X73660Y109220D02*
Y114300D01*
X83820Y150240D02*
X83920Y150140D01*
X104530D01*
X66040Y150240D02*
Y160140D01*
X71120Y106680D02*
X73660Y109220D01*
X65160Y106680D02*
X71120D01*
X81660Y88900D02*
Y106180D01*
X123958Y111258D02*
X125684Y112984D01*
Y113153D01*
X132280Y119749D01*
Y127390D01*
X127280Y137440D02*
X128733Y138893D01*
X127280Y127390D02*
Y137440D01*
X128733Y138893D02*
X132280Y135345D01*
Y127390D02*
Y135345D01*
X111258Y111258D02*
X123958D01*
X109220Y109220D02*
X111258Y111258D01*
X109220Y93980D02*
Y109220D01*
X105800Y90560D02*
X109220Y93980D01*
X99060Y90560D02*
X105800D01*
X81660Y88900D02*
X82160Y89400D01*
X122280Y119093D02*
Y127390D01*
X119271Y116084D02*
X122280Y119093D01*
X100844Y116084D02*
X119271D01*
X99060Y114300D02*
X100844Y116084D01*
X99060Y107560D02*
Y114300D01*
X134620Y144780D02*
X142280Y137120D01*
Y127390D02*
Y137120D01*
X152280Y142120D02*
X154940Y144780D01*
X152280Y127390D02*
Y142120D01*
X144780Y144780D02*
X147280Y142280D01*
Y127390D02*
Y142280D01*
X195220Y145140D02*
X198120Y142240D01*
X185030Y145140D02*
X195220D01*
X162280Y117120D02*
X165100Y114300D01*
X162280Y117120D02*
Y127390D01*
X66040Y160140D02*
X104530D01*
X35680D02*
X66040D01*
Y165140D02*
X104530D01*
X40600D02*
X66040D01*
Y177420D01*
X30480Y143240D02*
Y154940D01*
X35680Y160140D01*
X30480Y175260D02*
Y192040D01*
Y175260D02*
X40600Y165140D01*
X148080Y271780D02*
X157480D01*
X160400Y274700D01*
X170180D01*
X140970Y278890D02*
X148080Y271780D01*
D11*
X161148Y359552D02*
G03*
X160020Y356829I2723J-2723D01*
G01*
D02*
G03*
X158892Y359552I-3851J0D01*
G01*
X145914Y349371D02*
G03*
X147320Y352767I-3395J3395D01*
G01*
Y353129D02*
G03*
X148876Y349371I5314J0D01*
G01*
X158414D02*
G03*
X160020Y353250I-3878J3878D01*
G01*
Y352646D02*
G03*
X161376Y349371I4631J0D01*
G01*
X42196Y337409D02*
G03*
X40640Y333651I3757J-3757D01*
G01*
Y334013D02*
G03*
X39234Y337409I-4802J0D01*
G01*
X54696D02*
G03*
X53215Y333832I3576J-3576D01*
G01*
D02*
G03*
X51734Y337409I-5058J0D01*
G01*
X150774Y227686D02*
G03*
X153670Y234676I-6991J6991D01*
G01*
D02*
G03*
X156566Y227686I9886J0D01*
G01*
X130668Y257952D02*
G03*
X128270Y252163I5789J-5789D01*
G01*
X136032Y265572D02*
G03*
X133138Y266771I-2894J-2894D01*
G01*
X133481D02*
G03*
X136032Y267828I0J3608D01*
G01*
X148448Y359552D02*
G03*
X147320Y356829I2723J-2723D01*
G01*
D02*
G03*
X146192Y359552I-3851J0D01*
G01*
X161148D02*
G03*
X160020Y356829I2723J-2723D01*
G01*
D02*
G03*
X158892Y359552I-3851J0D01*
G01*
X159895Y343390D02*
X160020Y343515D01*
Y360680D01*
X147320Y343465D02*
X147395Y343390D01*
X147320Y343465D02*
Y360680D01*
X137089Y266771D02*
X137160Y266700D01*
X121991Y266771D02*
X137089D01*
X115570Y260350D02*
X121991Y266771D01*
X115570Y243200D02*
Y260350D01*
X128270Y257810D02*
X129540Y259080D01*
X128270Y243200D02*
Y257810D01*
X40640Y343315D02*
X40715Y343390D01*
X40640Y330200D02*
Y343315D01*
Y330200D02*
X47119Y323721D01*
Y285621D02*
Y323721D01*
Y285621D02*
X56231Y276509D01*
X73309D01*
X77470Y280670D01*
Y290200D01*
X53215Y294765D02*
Y343390D01*
Y294765D02*
X57780Y290200D01*
X64770D01*
X153670Y224790D02*
Y243200D01*
X83439Y111379D02*
X86082D01*
X81660Y109600D02*
X83439Y111379D01*
X101600Y126897D02*
Y132080D01*
X86082Y111379D02*
X101600Y126897D01*
X81660Y106180D02*
Y109600D01*
D12*
X167733Y83727D02*
G03*
X171420Y92627I-8900J8900D01*
G01*
X172395Y343390D02*
X197405D01*
X65715D02*
Y372565D01*
X171420Y82520D02*
Y99060D01*
X126294Y141331D02*
X128733Y138893D01*
X126294Y141331D02*
Y154234D01*
X127000Y154940D01*
D13*
X140580Y71120D02*
D03*
X123580D02*
D03*
X97400D02*
D03*
X80400D02*
D03*
X133740Y106680D02*
D03*
X150740D02*
D03*
X82160D02*
D03*
X65160D02*
D03*
D14*
X15465Y372890D02*
D03*
X91215D02*
D03*
X122145D02*
D03*
X197895D02*
D03*
D15*
X65715Y343390D02*
D03*
X172395D02*
D03*
D16*
X53215D02*
D03*
X40715D02*
D03*
X159895D02*
D03*
X147395D02*
D03*
D17*
X43180Y270120D02*
D03*
Y253120D02*
D03*
X22860Y270120D02*
D03*
Y253120D02*
D03*
X99060Y107560D02*
D03*
Y90560D02*
D03*
D18*
X84200Y312420D02*
D03*
X68200D02*
D03*
X150240D02*
D03*
X134240D02*
D03*
X172340Y238760D02*
D03*
X188340D02*
D03*
X101220Y312420D02*
D03*
X117220D02*
D03*
X150240Y88900D02*
D03*
X134240D02*
D03*
X81660D02*
D03*
X65660D02*
D03*
D19*
X64770Y243200D02*
D03*
X77470D02*
D03*
X90170D02*
D03*
X102870D02*
D03*
X115570D02*
D03*
X128270D02*
D03*
X140970D02*
D03*
X153670D02*
D03*
X64770Y290200D02*
D03*
X77470D02*
D03*
X90170D02*
D03*
X102870D02*
D03*
X115570D02*
D03*
X128270D02*
D03*
X140970D02*
D03*
X153670D02*
D03*
D20*
X66040Y193420D02*
D03*
Y177420D02*
D03*
Y134240D02*
D03*
Y150240D02*
D03*
X170180Y258700D02*
D03*
Y274700D02*
D03*
X83820Y177420D02*
D03*
Y193420D02*
D03*
Y134240D02*
D03*
Y150240D02*
D03*
X203200Y28320D02*
D03*
Y12320D02*
D03*
D21*
X22860Y93240D02*
D03*
Y64240D02*
D03*
X22860Y39900D02*
D03*
Y10900D02*
D03*
X198120Y75460D02*
D03*
Y46460D02*
D03*
D22*
X104530Y140140D02*
D03*
Y145140D02*
D03*
Y150140D02*
D03*
Y155140D02*
D03*
Y160140D02*
D03*
Y165140D02*
D03*
Y170140D02*
D03*
Y175140D02*
D03*
Y180140D02*
D03*
Y185140D02*
D03*
Y190140D02*
D03*
Y195140D02*
D03*
X185030D02*
D03*
Y190140D02*
D03*
Y185140D02*
D03*
Y180140D02*
D03*
Y175140D02*
D03*
Y170140D02*
D03*
Y165140D02*
D03*
Y160140D02*
D03*
Y155140D02*
D03*
Y150140D02*
D03*
Y145140D02*
D03*
Y140140D02*
D03*
D23*
X117280Y207890D02*
D03*
X122280D02*
D03*
X127280D02*
D03*
X132280D02*
D03*
X137280D02*
D03*
X142280D02*
D03*
X147280D02*
D03*
X152280D02*
D03*
X157280D02*
D03*
X162280D02*
D03*
X167280D02*
D03*
X172280D02*
D03*
Y127390D02*
D03*
X167280D02*
D03*
X162280D02*
D03*
X157280D02*
D03*
X152280D02*
D03*
X147280D02*
D03*
X142280D02*
D03*
X137280D02*
D03*
X132280D02*
D03*
X127280D02*
D03*
X122280D02*
D03*
X117280D02*
D03*
D24*
X171420Y99060D02*
D03*
X199420D02*
D03*
D25*
X148463Y53340D02*
X172720D01*
X141351Y46228D02*
X148463Y53340D01*
X172720D02*
X179600Y46460D01*
X198120D01*
X9420Y10900D02*
X22860D01*
D26*
X22860Y52070D02*
X39370D01*
X45847Y45593D01*
Y24384D02*
Y45593D01*
D27*
X185420Y125760D02*
Y127000D01*
Y125760D02*
X199420Y111760D01*
X105838Y215829D02*
X116069Y226060D01*
X96591Y215829D02*
X105838D01*
X96591D02*
X106680Y205740D01*
X83891Y215829D02*
X96591D01*
X83820Y215900D02*
X83891Y215829D01*
X116069Y226060D02*
X132080D01*
X71120Y215900D02*
X83820D01*
X66040Y210820D02*
X71120Y215900D01*
X139700Y167743D02*
X167537D01*
X10160Y210820D02*
X66040D01*
X10160D02*
Y340360D01*
Y132080D02*
Y210820D01*
Y340360D02*
X15240Y345440D01*
X10160Y132080D02*
X20320Y121920D01*
X48260D01*
Y91440D02*
Y121920D01*
Y68580D02*
Y91440D01*
Y121920D02*
X68580D01*
X199420Y99060D02*
Y111760D01*
X198120Y75460D02*
X199420Y76760D01*
Y99060D01*
X196880D02*
X198120Y97820D01*
D28*
X30480Y143240D02*
D03*
Y192040D02*
D03*
D29*
X167005Y24384D02*
D03*
X45847D02*
D03*
D30*
X116459Y46228D02*
D03*
X141351D02*
D03*
X96393D02*
D03*
X71501D02*
D03*
D31*
X129413Y24384D02*
D03*
X83947D02*
D03*
D32*
X152400Y71120D02*
D03*
X187960Y20320D02*
D03*
X109220Y73660D02*
D03*
X22860Y165100D02*
D03*
X182880Y208280D02*
D03*
X160020Y360680D02*
D03*
X147320D02*
D03*
X137160Y266700D02*
D03*
X129540Y259080D02*
D03*
X99060Y266700D02*
D03*
X33020Y241300D02*
D03*
X77470Y227330D02*
D03*
X64770D02*
D03*
X93980Y203200D02*
D03*
X119380Y185420D02*
D03*
X104140Y228600D02*
D03*
X91440Y226060D02*
D03*
X152400Y185420D02*
D03*
X144780Y193040D02*
D03*
X53340Y373380D02*
D03*
X160020D02*
D03*
X119380Y175260D02*
D03*
X134620Y144780D02*
D03*
X119380Y99060D02*
D03*
X144780Y144780D02*
D03*
X154940D02*
D03*
X101600Y132080D02*
D03*
X109220Y124460D02*
D03*
D33*
X167537Y167743D02*
D03*
X170180Y81280D02*
D03*
X139700Y167743D02*
D03*
X106680Y205740D02*
D03*
X153670Y224790D02*
D03*
X127000Y154940D02*
D03*
X185420Y127000D02*
D03*
M02*
