%FSLAX44Y44*%
%MOMM*%
G71*
G01*
G75*
G04 Layer_Physical_Order=2*
G04 Layer_Color=16711680*
%ADD10C,0.2540*%
%ADD11C,0.3810*%
%ADD12C,0.5080*%
%ADD13R,0.9000X1.0000*%
%ADD14R,2.1000X3.0000*%
%ADD15R,0.8000X1.7000*%
%ADD16O,0.8000X1.7000*%
%ADD17R,1.0000X0.9000*%
%ADD18R,1.0000X1.0000*%
%ADD19O,0.6000X1.9000*%
%ADD20R,1.0000X1.0000*%
%ADD21R,1.8000X1.3000*%
%ADD22O,1.5500X0.2500*%
%ADD23O,0.2500X1.5500*%
%ADD24R,2.0000X1.2000*%
%ADD25C,0.7620*%
%ADD26C,1.2700*%
%ADD27C,0.8890*%
%ADD28C,1.6000*%
%ADD29O,1.4000X3.8000*%
%ADD30O,1.5240X2.0320*%
%ADD31C,1.5000*%
%ADD32C,0.7000*%
%ADD33C,1.2000*%
G36*
X209734Y3626D02*
X172931D01*
X172500Y4896D01*
X173628Y5761D01*
X175116Y7701D01*
X176052Y9960D01*
X176371Y12384D01*
Y36384D01*
X176052Y38808D01*
X175116Y41067D01*
X173628Y43007D01*
X171688Y44495D01*
X169429Y45431D01*
X167005Y45750D01*
X164581Y45431D01*
X162322Y44495D01*
X160382Y43007D01*
X158894Y41067D01*
X157958Y38808D01*
X157639Y36384D01*
Y12384D01*
X157958Y9960D01*
X158894Y7701D01*
X160382Y5761D01*
X161510Y4896D01*
X161079Y3626D01*
X51773D01*
X51342Y4896D01*
X52470Y5761D01*
X53958Y7701D01*
X54894Y9960D01*
X55213Y12384D01*
Y36384D01*
X54894Y38808D01*
X53958Y41067D01*
X52470Y43007D01*
X50530Y44495D01*
X48271Y45431D01*
X45847Y45750D01*
X43423Y45431D01*
X41164Y44495D01*
X39224Y43007D01*
X37736Y41067D01*
X36800Y38808D01*
X36481Y36384D01*
Y12384D01*
X36800Y9960D01*
X37736Y7701D01*
X39224Y5761D01*
X40352Y4896D01*
X39921Y3626D01*
X3626D01*
Y395154D01*
X209734D01*
Y3626D01*
D02*
G37*
%LPC*%
G36*
X168910Y89726D02*
X167951Y89600D01*
X165873Y88740D01*
X164089Y87371D01*
X162720Y85587D01*
X161860Y83509D01*
X161733Y82550D01*
X168910D01*
Y89726D01*
D02*
G37*
G36*
X171450D02*
Y82550D01*
X178626D01*
X178500Y83509D01*
X177640Y85587D01*
X176271Y87371D01*
X174487Y88740D01*
X172409Y89600D01*
X171450Y89726D01*
D02*
G37*
G36*
X178626Y80010D02*
X171450D01*
Y72833D01*
X172409Y72960D01*
X174487Y73820D01*
X176271Y75189D01*
X177640Y76973D01*
X178500Y79051D01*
X178626Y80010D01*
D02*
G37*
G36*
X116459Y58759D02*
X113873Y58419D01*
X111463Y57421D01*
X109394Y55833D01*
X107806Y53764D01*
X107113Y52091D01*
X105739D01*
X105046Y53764D01*
X103458Y55833D01*
X101389Y57421D01*
X98979Y58419D01*
X96393Y58759D01*
X93807Y58419D01*
X91397Y57421D01*
X89328Y55833D01*
X87740Y53764D01*
X86742Y51354D01*
X86402Y48768D01*
Y43688D01*
X86742Y41102D01*
X87740Y38692D01*
X89328Y36623D01*
X91397Y35035D01*
X93807Y34037D01*
X96393Y33696D01*
X98979Y34037D01*
X101389Y35035D01*
X103458Y36623D01*
X105046Y38692D01*
X105739Y40365D01*
X107113D01*
X107806Y38692D01*
X109394Y36623D01*
X111463Y35035D01*
X113873Y34037D01*
X116459Y33696D01*
X119045Y34037D01*
X121455Y35035D01*
X123524Y36623D01*
X125112Y38692D01*
X126110Y41102D01*
X126451Y43688D01*
Y48768D01*
X126110Y51354D01*
X125112Y53764D01*
X123524Y55833D01*
X121455Y57421D01*
X119045Y58419D01*
X116459Y58759D01*
D02*
G37*
G36*
X168910Y80010D02*
X161733D01*
X161860Y79051D01*
X162720Y76973D01*
X164089Y75189D01*
X165873Y73820D01*
X167951Y72960D01*
X168910Y72833D01*
Y80010D01*
D02*
G37*
G36*
X107950Y123190D02*
X103314D01*
X103531Y122103D01*
X104865Y120105D01*
X106863Y118771D01*
X107950Y118554D01*
Y123190D01*
D02*
G37*
G36*
X30480Y153615D02*
X27795Y153261D01*
X25293Y152225D01*
X23144Y150576D01*
X21495Y148427D01*
X20459Y145925D01*
X20105Y143240D01*
X20459Y140555D01*
X21495Y138053D01*
X23144Y135904D01*
X25293Y134255D01*
X27795Y133219D01*
X30480Y132865D01*
X33165Y133219D01*
X35667Y134255D01*
X37816Y135904D01*
X39465Y138053D01*
X40501Y140555D01*
X40855Y143240D01*
X40501Y145925D01*
X39465Y148427D01*
X37816Y150576D01*
X35667Y152225D01*
X33165Y153261D01*
X30480Y153615D01*
D02*
G37*
G36*
X21590Y163830D02*
X16954D01*
X17170Y162743D01*
X18505Y160745D01*
X20503Y159410D01*
X21590Y159194D01*
Y163830D01*
D02*
G37*
G36*
X110490Y130366D02*
Y125730D01*
X115126D01*
X114909Y126817D01*
X113575Y128815D01*
X111577Y130149D01*
X110490Y130366D01*
D02*
G37*
G36*
X115126Y123190D02*
X110490D01*
Y118554D01*
X111577Y118771D01*
X113575Y120105D01*
X114909Y122103D01*
X115126Y123190D01*
D02*
G37*
G36*
X33020Y247199D02*
X30762Y246750D01*
X28849Y245471D01*
X27570Y243558D01*
X27121Y241300D01*
X27570Y239042D01*
X28849Y237129D01*
X30762Y235850D01*
X30813Y235840D01*
X32996Y233656D01*
X32996Y233656D01*
X33701Y233185D01*
X34172Y232870D01*
X35560Y232594D01*
X60122D01*
X60480Y231324D01*
X59320Y229588D01*
X58871Y227330D01*
X59320Y225072D01*
X60599Y223158D01*
X62512Y221880D01*
X64770Y221431D01*
X64819Y221441D01*
X65434Y221318D01*
X65996Y220942D01*
X66008Y220954D01*
X66013Y220959D01*
X66013Y220959D01*
X67494Y219478D01*
Y213360D01*
X67494Y213360D01*
X67770Y211973D01*
X68556Y210796D01*
X96496Y182856D01*
X96496Y182856D01*
X97673Y182070D01*
X99060Y181794D01*
X99060Y181794D01*
X113996D01*
Y181787D01*
Y181770D01*
X114660Y181638D01*
X115181Y181290D01*
X115209Y181248D01*
X115618Y180975D01*
Y179705D01*
X115209Y179431D01*
X113930Y177518D01*
X113481Y175260D01*
X113930Y173002D01*
X115209Y171089D01*
X115251Y171061D01*
X115598Y170540D01*
X115730Y169876D01*
X115754D01*
Y162560D01*
X115754Y162560D01*
X116030Y161173D01*
X116816Y159996D01*
X119156Y157656D01*
X118927Y157103D01*
X118643Y154940D01*
X118912Y152895D01*
X107450Y141433D01*
X106680D01*
X106680Y141433D01*
X105045Y141108D01*
X103658Y140182D01*
X103658Y140182D01*
X101420Y137944D01*
X99342Y137530D01*
X97429Y136251D01*
X96150Y134338D01*
X95701Y132080D01*
X96150Y129822D01*
X97429Y127908D01*
X99342Y126630D01*
X101600Y126181D01*
X102357Y126331D01*
X102958Y125730D01*
X107950D01*
Y130722D01*
X107349Y131323D01*
X107464Y131901D01*
X108450Y132887D01*
X109220D01*
X110855Y133212D01*
X112242Y134138D01*
X124955Y146852D01*
X127000Y146582D01*
X128054Y146721D01*
X128922Y145794D01*
X128721Y144780D01*
X129170Y142522D01*
X130449Y140609D01*
X132362Y139330D01*
X134620Y138881D01*
X135264Y139009D01*
X139122Y135150D01*
Y103610D01*
X138198Y102686D01*
X124417D01*
X124291Y102709D01*
X124172Y102742D01*
X124063Y102782D01*
X123960Y102829D01*
X123859Y102887D01*
X123758Y102956D01*
X123710Y102995D01*
X123552Y103231D01*
X121638Y104510D01*
X119380Y104959D01*
X117122Y104510D01*
X115209Y103231D01*
X113930Y101318D01*
X113481Y99060D01*
X113930Y96802D01*
X115209Y94888D01*
X117122Y93610D01*
X119380Y93161D01*
X121638Y93610D01*
X123552Y94888D01*
X123710Y95125D01*
X123758Y95164D01*
X123859Y95233D01*
X123960Y95291D01*
X124063Y95338D01*
X124172Y95378D01*
X124291Y95411D01*
X124417Y95434D01*
X139700D01*
X139700Y95434D01*
X141088Y95710D01*
X142264Y96496D01*
X142775Y97008D01*
X143948Y96522D01*
Y94941D01*
X128833Y79826D01*
X111760D01*
X110372Y79550D01*
X110119Y79380D01*
X109220Y79559D01*
X106962Y79110D01*
X105049Y77832D01*
X103770Y75918D01*
X103321Y73660D01*
X103770Y71402D01*
X105049Y69489D01*
X106962Y68210D01*
X109220Y67761D01*
X111478Y68210D01*
X113392Y69489D01*
X114670Y71402D01*
X114903Y72574D01*
X130335D01*
X130335Y72574D01*
X131722Y72850D01*
X132899Y73636D01*
X147601Y88338D01*
X148774Y87852D01*
Y76157D01*
X148751Y76031D01*
X148718Y75912D01*
X148678Y75803D01*
X148631Y75700D01*
X148573Y75599D01*
X148504Y75498D01*
X148465Y75450D01*
X148229Y75292D01*
X146950Y73378D01*
X146501Y71120D01*
X146950Y68862D01*
X148229Y66948D01*
X150142Y65670D01*
X152400Y65221D01*
X154658Y65670D01*
X156572Y66948D01*
X157850Y68862D01*
X158299Y71120D01*
X157850Y73378D01*
X156572Y75292D01*
X156335Y75450D01*
X156296Y75498D01*
X156227Y75599D01*
X156169Y75700D01*
X156122Y75803D01*
X156082Y75912D01*
X156049Y76031D01*
X156026Y76157D01*
Y139097D01*
X157198Y139330D01*
X159111Y140609D01*
X160390Y142522D01*
X160839Y144780D01*
X160407Y146952D01*
X160417Y147232D01*
X160946Y148222D01*
X177457D01*
X178631Y147048D01*
Y131763D01*
X178182Y131179D01*
X177347Y129163D01*
X177062Y127000D01*
X177347Y124837D01*
X178182Y122821D01*
X179510Y121090D01*
X181241Y119762D01*
X183257Y118927D01*
X185420Y118643D01*
X187583Y118927D01*
X189599Y119762D01*
X191330Y121090D01*
X192658Y122821D01*
X193493Y124837D01*
X193778Y127000D01*
X193493Y129163D01*
X192658Y131179D01*
X192209Y131763D01*
Y149860D01*
X191978Y151617D01*
X191299Y153255D01*
X190831Y153865D01*
X190221Y154661D01*
X185070Y159812D01*
X183664Y160891D01*
X182985Y161171D01*
X182026Y161569D01*
X181209Y161676D01*
X180269Y161800D01*
X175177D01*
X174615Y162939D01*
X174997Y163436D01*
X175857Y165514D01*
X175984Y166473D01*
X167537D01*
Y169013D01*
X175984D01*
X175857Y169972D01*
X174997Y172050D01*
X173628Y173834D01*
X171844Y175203D01*
X169766Y176063D01*
X169146Y176145D01*
X168738Y177347D01*
X169901Y178510D01*
X170979Y179916D01*
X171658Y181553D01*
X171889Y183310D01*
Y198120D01*
X171658Y199877D01*
X170979Y201514D01*
X169901Y202921D01*
X160459Y212362D01*
Y220026D01*
X160908Y220611D01*
X161743Y222627D01*
X162027Y224790D01*
X161743Y226953D01*
X160908Y228969D01*
X159580Y230700D01*
X157849Y232028D01*
X155833Y232863D01*
X153670Y233148D01*
X151507Y232863D01*
X149491Y232028D01*
X147760Y230700D01*
X146432Y228969D01*
X145597Y226953D01*
X145312Y224790D01*
X145597Y222627D01*
X146432Y220611D01*
X146881Y220026D01*
Y213176D01*
X143422D01*
X117814Y238784D01*
X116637Y239570D01*
X115250Y239846D01*
X115250Y239846D01*
X39631D01*
X38825Y240827D01*
X38919Y241300D01*
X38470Y243558D01*
X37192Y245471D01*
X35278Y246750D01*
X33020Y247199D01*
D02*
G37*
G36*
X129413Y34254D02*
X126858Y33918D01*
X124478Y32932D01*
X122434Y31363D01*
X120865Y29319D01*
X119879Y26939D01*
X119543Y24384D01*
X119879Y21829D01*
X120865Y19449D01*
X122434Y17405D01*
X124478Y15836D01*
X126858Y14850D01*
X129413Y14514D01*
X131968Y14850D01*
X134348Y15836D01*
X136392Y17405D01*
X137961Y19449D01*
X138947Y21829D01*
X139283Y24384D01*
X138947Y26939D01*
X137961Y29319D01*
X136392Y31363D01*
X134348Y32932D01*
X131968Y33918D01*
X129413Y34254D01*
D02*
G37*
G36*
X186690Y26226D02*
X185603Y26010D01*
X183605Y24675D01*
X182271Y22677D01*
X182054Y21590D01*
X186690D01*
Y26226D01*
D02*
G37*
G36*
X83947Y34254D02*
X81392Y33918D01*
X79012Y32932D01*
X76968Y31363D01*
X75399Y29319D01*
X74413Y26939D01*
X74077Y24384D01*
X74413Y21829D01*
X75399Y19449D01*
X76968Y17405D01*
X79012Y15836D01*
X81392Y14850D01*
X83947Y14514D01*
X86502Y14850D01*
X88882Y15836D01*
X90927Y17405D01*
X92495Y19449D01*
X93481Y21829D01*
X93817Y24384D01*
X93481Y26939D01*
X92495Y29319D01*
X90927Y31363D01*
X88882Y32932D01*
X86502Y33918D01*
X83947Y34254D01*
D02*
G37*
G36*
X186690Y19050D02*
X182054D01*
X182271Y17963D01*
X183605Y15965D01*
X185603Y14631D01*
X186690Y14414D01*
Y19050D01*
D02*
G37*
G36*
X193866D02*
X189230D01*
Y14414D01*
X190317Y14631D01*
X192315Y15965D01*
X193650Y17963D01*
X193866Y19050D01*
D02*
G37*
G36*
X189230Y26226D02*
Y21590D01*
X193866D01*
X193650Y22677D01*
X192315Y24675D01*
X190317Y26010D01*
X189230Y26226D01*
D02*
G37*
G36*
X70231Y58849D02*
X68849Y58667D01*
X66377Y57643D01*
X64255Y56014D01*
X62626Y53892D01*
X61603Y51420D01*
X61253Y48768D01*
Y47498D01*
X70231D01*
Y58849D01*
D02*
G37*
G36*
X72771D02*
Y47498D01*
X81749D01*
Y48768D01*
X81399Y51420D01*
X80376Y53892D01*
X78747Y56014D01*
X76625Y57643D01*
X74153Y58667D01*
X72771Y58849D01*
D02*
G37*
G36*
X141351Y58759D02*
X138765Y58419D01*
X136355Y57421D01*
X134286Y55833D01*
X132698Y53764D01*
X131700Y51354D01*
X131360Y48768D01*
Y43688D01*
X131700Y41102D01*
X132698Y38692D01*
X134286Y36623D01*
X136355Y35035D01*
X138765Y34037D01*
X141351Y33696D01*
X143937Y34037D01*
X146347Y35035D01*
X148416Y36623D01*
X150004Y38692D01*
X151002Y41102D01*
X151342Y43688D01*
Y48768D01*
X151002Y51354D01*
X150004Y53764D01*
X148416Y55833D01*
X146347Y57421D01*
X143937Y58419D01*
X141351Y58759D01*
D02*
G37*
G36*
X70231Y44958D02*
X61253D01*
Y43688D01*
X61603Y41036D01*
X62626Y38564D01*
X64255Y36442D01*
X66377Y34813D01*
X68849Y33790D01*
X70231Y33607D01*
Y44958D01*
D02*
G37*
G36*
X81749D02*
X72771D01*
Y33607D01*
X74153Y33790D01*
X76625Y34813D01*
X78747Y36442D01*
X80376Y38564D01*
X81399Y41036D01*
X81749Y43688D01*
Y44958D01*
D02*
G37*
G36*
X97790Y272606D02*
X96703Y272390D01*
X94705Y271055D01*
X93371Y269057D01*
X93154Y267970D01*
X97790D01*
Y272606D01*
D02*
G37*
G36*
X100330D02*
Y267970D01*
X104966D01*
X104749Y269057D01*
X103415Y271055D01*
X101417Y272390D01*
X100330Y272606D01*
D02*
G37*
G36*
X165926Y372110D02*
X154114D01*
X154331Y371023D01*
X155665Y369025D01*
X157663Y367691D01*
X158380Y367548D01*
Y366253D01*
X157762Y366130D01*
X155849Y364851D01*
X154570Y362938D01*
X154317Y361669D01*
X153023D01*
X152770Y362938D01*
X151491Y364851D01*
X149578Y366130D01*
X147320Y366579D01*
X145062Y366130D01*
X143148Y364851D01*
X141870Y362938D01*
X141421Y360680D01*
X141870Y358422D01*
X143011Y356714D01*
X143047Y356628D01*
Y316730D01*
X126447Y300131D01*
X125521Y298744D01*
X125196Y297109D01*
Y263009D01*
X125179Y262967D01*
X124090Y261338D01*
X123641Y259080D01*
X124090Y256822D01*
X125368Y254909D01*
X127282Y253630D01*
X129540Y253181D01*
X131798Y253630D01*
X133712Y254909D01*
X134990Y256822D01*
X135439Y259080D01*
X135235Y260107D01*
X136133Y261005D01*
X137160Y260801D01*
X139418Y261250D01*
X141332Y262528D01*
X142610Y264442D01*
X143059Y266700D01*
X142610Y268958D01*
X141469Y270666D01*
X141433Y270752D01*
Y294409D01*
X157962Y310937D01*
X157962Y310937D01*
X158888Y312324D01*
X159213Y313959D01*
Y353830D01*
X160176Y354793D01*
X160262Y354829D01*
X162278Y355230D01*
X164191Y356508D01*
X165470Y358422D01*
X165919Y360680D01*
X165470Y362938D01*
X164191Y364851D01*
X162278Y366130D01*
X161660Y366253D01*
Y367548D01*
X162377Y367691D01*
X164375Y369025D01*
X165709Y371023D01*
X165926Y372110D01*
D02*
G37*
G36*
X184150Y214186D02*
Y209550D01*
X188786D01*
X188570Y210637D01*
X187235Y212635D01*
X185237Y213969D01*
X184150Y214186D01*
D02*
G37*
G36*
X97790Y265430D02*
X93154D01*
X93371Y264343D01*
X94705Y262345D01*
X96703Y261010D01*
X97790Y260794D01*
Y265430D01*
D02*
G37*
G36*
X104966D02*
X100330D01*
Y260794D01*
X101417Y261010D01*
X103415Y262345D01*
X104749Y264343D01*
X104966Y265430D01*
D02*
G37*
G36*
X54610Y379286D02*
Y374650D01*
X59246D01*
X59029Y375737D01*
X57695Y377735D01*
X55697Y379070D01*
X54610Y379286D01*
D02*
G37*
G36*
X158750D02*
X157663Y379070D01*
X155665Y377735D01*
X154331Y375737D01*
X154114Y374650D01*
X158750D01*
Y379286D01*
D02*
G37*
G36*
X161290D02*
Y374650D01*
X165926D01*
X165709Y375737D01*
X164375Y377735D01*
X162377Y379070D01*
X161290Y379286D01*
D02*
G37*
G36*
X52070Y372110D02*
X47434D01*
X47650Y371023D01*
X48985Y369025D01*
X50983Y367691D01*
X52070Y367474D01*
Y372110D01*
D02*
G37*
G36*
X59246D02*
X54610D01*
Y367474D01*
X55697Y367691D01*
X57695Y369025D01*
X59029Y371023D01*
X59246Y372110D01*
D02*
G37*
G36*
X52070Y379286D02*
X50983Y379070D01*
X48985Y377735D01*
X47650Y375737D01*
X47434Y374650D01*
X52070D01*
Y379286D01*
D02*
G37*
G36*
X181610Y214186D02*
X180523Y213969D01*
X178525Y212635D01*
X177190Y210637D01*
X176974Y209550D01*
X181610D01*
Y214186D01*
D02*
G37*
G36*
Y207010D02*
X176974D01*
X177190Y205923D01*
X178525Y203925D01*
X180523Y202591D01*
X181610Y202374D01*
Y207010D01*
D02*
G37*
G36*
X24130Y171006D02*
Y166370D01*
X28766D01*
X28549Y167457D01*
X27215Y169455D01*
X25217Y170790D01*
X24130Y171006D01*
D02*
G37*
G36*
X30480Y202415D02*
X27795Y202061D01*
X25293Y201025D01*
X23144Y199376D01*
X21495Y197227D01*
X20459Y194725D01*
X20105Y192040D01*
X20459Y189355D01*
X21495Y186853D01*
X23144Y184704D01*
X25293Y183055D01*
X27795Y182019D01*
X30480Y181665D01*
X33165Y182019D01*
X35667Y183055D01*
X37816Y184704D01*
X39465Y186853D01*
X40501Y189355D01*
X40855Y192040D01*
X40501Y194725D01*
X39465Y197227D01*
X37816Y199376D01*
X35667Y201025D01*
X33165Y202061D01*
X30480Y202415D01*
D02*
G37*
G36*
X28766Y163830D02*
X24130D01*
Y159194D01*
X25217Y159410D01*
X27215Y160745D01*
X28549Y162743D01*
X28766Y163830D01*
D02*
G37*
G36*
X188786Y207010D02*
X184150D01*
Y202374D01*
X185237Y202591D01*
X187235Y203925D01*
X188570Y205923D01*
X188786Y207010D01*
D02*
G37*
G36*
X21590Y171006D02*
X20503Y170790D01*
X18505Y169455D01*
X17170Y167457D01*
X16954Y166370D01*
X21590D01*
Y171006D01*
D02*
G37*
%LPD*%
G36*
X88904Y231324D02*
X87268Y230231D01*
X85990Y228318D01*
X85541Y226060D01*
X85990Y223802D01*
X87268Y221889D01*
X89182Y220610D01*
X91440Y220161D01*
X91489Y220170D01*
X92104Y220048D01*
X92666Y219673D01*
X92678Y219684D01*
X92683Y219689D01*
X92683Y219689D01*
X93956Y218416D01*
X93956Y218416D01*
X95133Y217630D01*
X96520Y217354D01*
X96520Y217354D01*
X115338D01*
X139009Y193684D01*
X138881Y193040D01*
X139330Y190782D01*
X140609Y188869D01*
X142522Y187590D01*
X144780Y187141D01*
X145807Y187345D01*
X146705Y186447D01*
X146501Y185420D01*
X146950Y183162D01*
X148229Y181248D01*
X150142Y179970D01*
X150503Y179898D01*
X150871Y178683D01*
X147630Y175442D01*
X146894Y174482D01*
X146223Y174088D01*
X145261Y174240D01*
X144007Y175203D01*
X141929Y176063D01*
X140970Y176189D01*
Y167743D01*
X139700D01*
Y166473D01*
X131253D01*
X131380Y165514D01*
X132055Y163883D01*
X131727Y162647D01*
X131506Y162307D01*
X131179Y162178D01*
X129163Y163013D01*
X127000Y163298D01*
X124837Y163013D01*
X124284Y162784D01*
X123006Y164062D01*
Y169876D01*
X123030D01*
X123162Y170540D01*
X123510Y171061D01*
X123552Y171089D01*
X124830Y173002D01*
X125279Y175260D01*
X124830Y177518D01*
X123552Y179431D01*
X123142Y179705D01*
Y180975D01*
X123552Y181248D01*
X124830Y183162D01*
X125279Y185420D01*
X124830Y187678D01*
X123552Y189592D01*
X121638Y190870D01*
X119380Y191319D01*
X117122Y190870D01*
X115209Y189592D01*
X115181Y189550D01*
X114660Y189202D01*
X113996Y189070D01*
Y189046D01*
X100562D01*
X93397Y196210D01*
X93505Y196412D01*
X94082Y197321D01*
X96238Y197750D01*
X98152Y199028D01*
X98763Y199943D01*
X100324Y199994D01*
X100589Y199649D01*
X102373Y198280D01*
X104451Y197420D01*
X105410Y197293D01*
Y205740D01*
Y214186D01*
X104451Y214060D01*
X102373Y213200D01*
X100589Y211831D01*
X99220Y210047D01*
X98616Y208588D01*
X97298Y208061D01*
X97093Y208079D01*
X96238Y208650D01*
X93980Y209099D01*
X91722Y208650D01*
X89809Y207372D01*
X88670Y207762D01*
X81096Y215337D01*
Y221946D01*
X81120D01*
X81252Y222610D01*
X81600Y223130D01*
X81642Y223158D01*
X82920Y225072D01*
X83369Y227330D01*
X82920Y229588D01*
X81760Y231324D01*
X82118Y232594D01*
X88618D01*
X88904Y231324D01*
D02*
G37*
G36*
X153682Y76146D02*
X153717Y75821D01*
X153776Y75508D01*
X153859Y75205D01*
X153965Y74913D01*
X154095Y74633D01*
X154248Y74363D01*
X154425Y74104D01*
X154626Y73856D01*
X154850Y73619D01*
X149950D01*
X150174Y73856D01*
X150375Y74104D01*
X150552Y74363D01*
X150705Y74633D01*
X150835Y74913D01*
X150941Y75205D01*
X151024Y75508D01*
X151083Y75821D01*
X151118Y76146D01*
X151130Y76481D01*
X153670D01*
X153682Y76146D01*
D02*
G37*
G36*
X122116Y101286D02*
X122364Y101085D01*
X122623Y100908D01*
X122893Y100755D01*
X123173Y100625D01*
X123465Y100519D01*
X123768Y100436D01*
X124081Y100377D01*
X124406Y100342D01*
X124741Y100330D01*
Y97790D01*
X124406Y97778D01*
X124081Y97743D01*
X123768Y97684D01*
X123465Y97601D01*
X123173Y97495D01*
X122893Y97365D01*
X122623Y97212D01*
X122364Y97035D01*
X122116Y96834D01*
X121880Y96610D01*
Y101510D01*
X122116Y101286D01*
D02*
G37*
%LPC*%
G36*
X107950Y214186D02*
Y207010D01*
X115126D01*
X115000Y207969D01*
X114140Y210047D01*
X112771Y211831D01*
X110987Y213200D01*
X108909Y214060D01*
X107950Y214186D01*
D02*
G37*
G36*
X138430Y176189D02*
X137471Y176063D01*
X135393Y175203D01*
X133609Y173834D01*
X132240Y172050D01*
X131380Y169972D01*
X131253Y169013D01*
X138430D01*
Y176189D01*
D02*
G37*
G36*
X115126Y204470D02*
X107950D01*
Y197293D01*
X108909Y197420D01*
X110987Y198280D01*
X112771Y199649D01*
X114140Y201433D01*
X115000Y203511D01*
X115126Y204470D01*
D02*
G37*
%LPD*%
D10*
X67000Y227330D02*
G03*
X68577Y223523I5384J0D01*
G01*
X68577Y223523D02*
G03*
X64770Y225100I-3807J-3807D01*
G01*
X169493Y176388D02*
G03*
X167200Y167649I6332J-6332D01*
G01*
X172567Y179462D02*
G03*
X169646Y168332I8064J-8064D01*
G01*
X175641Y182536D02*
G03*
X172093Y169015I9796J-9796D01*
G01*
X165960Y172202D02*
G03*
X167537Y174432I-788J2230D01*
G01*
D02*
G03*
X169114Y172202I2365J0D01*
G01*
X182880Y206050D02*
G03*
X179073Y204473I0J-5384D01*
G01*
X179073Y204473D02*
G03*
X180650Y208280I-3807J3807D01*
G01*
X120957Y173683D02*
G03*
X119380Y169876I3807J-3807D01*
G01*
D02*
G03*
X117803Y173683I-5384J0D01*
G01*
X150823Y186997D02*
G03*
X151836Y189442I-2445J2445D01*
G01*
Y192165D02*
G03*
X153977Y186997I7309J0D01*
G01*
X93670Y226060D02*
G03*
X95247Y222253I5384J0D01*
G01*
X95247Y222253D02*
G03*
X91440Y223830I-3807J-3807D01*
G01*
X105717Y230177D02*
G03*
X110137Y228346I4420J4420D01*
G01*
X108911D02*
G03*
X105717Y227023I0J-4516D01*
G01*
X117803Y183843D02*
G03*
X113996Y185420I-3807J-3807D01*
G01*
D02*
G03*
X117803Y186997I0J5384D01*
G01*
X92403Y201623D02*
G03*
X88596Y203200I-3807J-3807D01*
G01*
D02*
G03*
X92403Y204777I0J5384D01*
G01*
X79047Y225753D02*
G03*
X77470Y221946I3807J-3807D01*
G01*
D02*
G03*
X75893Y225753I-5384J0D01*
G01*
X34979Y240235D02*
G03*
X35560Y236220I2977J-1619D01*
G01*
X170180Y81280D02*
X187960Y63500D01*
Y20320D02*
Y63500D01*
X109220Y73660D02*
X111760Y76200D01*
X130335D01*
X119380Y99060D02*
X139700D01*
X142748Y102108D01*
Y136652D01*
X134620Y144780D02*
X142748Y136652D01*
X64770Y227330D02*
X71120Y220980D01*
Y213360D02*
Y220980D01*
Y213360D02*
X99060Y185420D01*
X77470Y213835D02*
Y227330D01*
Y213835D02*
X88105Y203200D01*
X141920Y209550D02*
X153670D01*
X115250Y236220D02*
X141920Y209550D01*
X35560Y236220D02*
X115250D01*
X175641Y201041D02*
X182880Y208280D01*
X175641Y182536D02*
Y201041D01*
X167537Y174432D02*
X175641Y182536D01*
X167537Y167743D02*
Y174432D01*
X33020Y238760D02*
X35560Y236220D01*
X33020Y238760D02*
Y241300D01*
X116840Y220980D02*
X144780Y193040D01*
X96520Y220980D02*
X116840D01*
X91440Y226060D02*
X96520Y220980D01*
X104140Y228600D02*
X104394Y228346D01*
X116299D01*
X88105Y203200D02*
X93980D01*
X99060Y185420D02*
X119380D01*
X151836Y185984D02*
Y195963D01*
X147703Y200096D02*
X151836Y195963D01*
X144549Y200096D02*
X147703D01*
X116299Y228346D02*
X144549Y200096D01*
X151836Y185984D02*
X152400Y185420D01*
X119380Y162560D02*
Y175260D01*
Y162560D02*
X127000Y154940D01*
X144780Y144780D02*
X147574Y141986D01*
Y93439D02*
Y141986D01*
X130335Y76200D02*
X147574Y93439D01*
X152400Y142240D02*
X154940Y144780D01*
X152400Y71120D02*
Y142240D01*
X116459Y39361D02*
X116840Y38980D01*
D11*
X160020Y359085D02*
G03*
X157297Y357957I0J-3851D01*
G01*
D02*
G03*
X158425Y360680I-2723J2723D01*
G01*
X128412Y260208D02*
G03*
X129469Y262759I-2551J2551D01*
G01*
Y263102D02*
G03*
X130668Y260208I4093J0D01*
G01*
X136032Y267828D02*
G03*
X137160Y270551I-2723J2723D01*
G01*
D02*
G03*
X138288Y267828I3851J0D01*
G01*
X148448Y359552D02*
G03*
X147320Y356829I2723J-2723D01*
G01*
D02*
G03*
X146192Y359552I-3851J0D01*
G01*
X154940Y355600D02*
X160020Y360680D01*
X154940Y313959D02*
Y355600D01*
X137160Y296179D02*
X154940Y313959D01*
X147320Y314960D02*
Y360680D01*
X129469Y297109D02*
X147320Y314960D01*
X137160Y266700D02*
Y296179D01*
X129469Y259151D02*
Y297109D01*
Y259151D02*
X129540Y259080D01*
X109220Y137160D02*
X127000Y154940D01*
X106680Y137160D02*
X109220D01*
X101600Y132080D02*
X106680Y137160D01*
D27*
X107818Y206799D02*
G03*
X121919Y200660I14101J13123D01*
G01*
X153670Y209550D02*
X165100Y198120D01*
Y183310D02*
Y198120D01*
X152431Y170641D02*
X165100Y183310D01*
X106680Y205740D02*
X111760Y200660D01*
X121920D01*
X139700Y167743D02*
Y182880D01*
X121920Y200660D02*
X139700Y182880D01*
X153670Y209550D02*
Y224790D01*
X152400Y155011D02*
X180269D01*
X127071D02*
X152400D01*
X152431Y155042D02*
Y170641D01*
X152400Y155011D02*
X152431Y155042D01*
X127000Y154940D02*
X127071Y155011D01*
X180269D02*
X185420Y149860D01*
Y127000D02*
Y149860D01*
D28*
X30480Y143240D02*
D03*
Y192040D02*
D03*
D29*
X167005Y24384D02*
D03*
X45847D02*
D03*
D30*
X116459Y46228D02*
D03*
X141351D02*
D03*
X96393D02*
D03*
X71501D02*
D03*
D31*
X129413Y24384D02*
D03*
X83947D02*
D03*
D32*
X152400Y71120D02*
D03*
X187960Y20320D02*
D03*
X109220Y73660D02*
D03*
X22860Y165100D02*
D03*
X182880Y208280D02*
D03*
X160020Y360680D02*
D03*
X147320D02*
D03*
X137160Y266700D02*
D03*
X129540Y259080D02*
D03*
X99060Y266700D02*
D03*
X33020Y241300D02*
D03*
X77470Y227330D02*
D03*
X64770D02*
D03*
X93980Y203200D02*
D03*
X119380Y185420D02*
D03*
X104140Y228600D02*
D03*
X91440Y226060D02*
D03*
X152400Y185420D02*
D03*
X144780Y193040D02*
D03*
X53340Y373380D02*
D03*
X160020D02*
D03*
X119380Y175260D02*
D03*
X134620Y144780D02*
D03*
X119380Y99060D02*
D03*
X144780Y144780D02*
D03*
X154940D02*
D03*
X101600Y132080D02*
D03*
X109220Y124460D02*
D03*
D33*
X167537Y167743D02*
D03*
X170180Y81280D02*
D03*
X139700Y167743D02*
D03*
X106680Y205740D02*
D03*
X153670Y224790D02*
D03*
X127000Y154940D02*
D03*
X185420Y127000D02*
D03*
M02*
