%FSLAX44Y44*%
%MOMM*%
G71*
G01*
G75*
%ADD10C,0.2540*%
%ADD11C,0.3810*%
%ADD12C,0.5080*%
%ADD13R,0.9000X1.0000*%
%ADD14R,2.1000X3.0000*%
%ADD15R,0.8000X1.7000*%
%ADD16O,0.8000X1.7000*%
%ADD17R,1.0000X0.9000*%
%ADD18R,1.0000X1.0000*%
%ADD19O,0.6000X1.9000*%
%ADD20R,1.0000X1.0000*%
%ADD21R,1.8000X1.3000*%
%ADD22O,1.5500X0.2500*%
%ADD23O,0.2500X1.5500*%
%ADD24R,2.0000X1.2000*%
%ADD25C,0.7620*%
%ADD26C,1.2700*%
%ADD27C,0.8890*%
%ADD28C,1.6000*%
%ADD29O,1.4000X3.8000*%
%ADD30O,1.5240X2.0320*%
%ADD31C,1.5000*%
%ADD32C,0.7000*%
%ADD33C,1.2000*%
%ADD34C,0.4000*%
%ADD35C,0.2500*%
%ADD36C,0.2000*%
%ADD37C,0.6000*%
%ADD38C,0.1016*%
%ADD39R,1.1032X1.2032*%
%ADD40R,2.3032X3.2032*%
%ADD41R,1.0032X1.9032*%
%ADD42O,1.0032X1.9032*%
%ADD43R,1.2032X1.1032*%
%ADD44R,1.2032X1.2032*%
%ADD45O,0.8032X2.1032*%
%ADD46R,1.2032X1.2032*%
%ADD47R,2.0032X1.5032*%
%ADD48O,1.7532X0.4532*%
%ADD49O,0.4532X1.7532*%
%ADD50R,2.2032X1.4032*%
%ADD51C,1.8032*%
%ADD52O,1.6032X4.0032*%
%ADD53O,1.7272X2.2352*%
%ADD54C,1.7032*%
%ADD55C,0.7508*%
%ADD56C,1.4032*%
%ADD57C,0.1000*%
%ADD58C,0.1270*%
%ADD59C,0.0500*%
%ADD60C,0.1524*%
%ADD61C,0.1693*%
D58*
X26480Y143240D02*
X34480D01*
X30480Y139240D02*
Y147240D01*
X26480Y192040D02*
X34480D01*
X30480Y188040D02*
Y196040D01*
X162005Y24384D02*
X172005D01*
X167005Y19384D02*
Y29384D01*
X40847Y24384D02*
X50847D01*
X45847Y19384D02*
Y29384D01*
X111760Y46228D02*
X121158D01*
X116459Y41529D02*
Y50927D01*
X136652Y46228D02*
X146050D01*
X141351Y41529D02*
Y50927D01*
X91694Y46228D02*
X101092D01*
X96393Y41529D02*
Y50927D01*
X66802Y46228D02*
X76200D01*
X71501Y41529D02*
Y50927D01*
X121913Y24384D02*
X136913D01*
X129413Y16884D02*
Y31884D01*
X76447Y24384D02*
X91447D01*
X83947Y16884D02*
Y31884D01*
X150900Y71120D02*
X153900D01*
X152400Y69620D02*
Y72620D01*
X186460Y20320D02*
X189460D01*
X187960Y18820D02*
Y21820D01*
X107720Y73660D02*
X110720D01*
X109220Y72160D02*
Y75160D01*
X21360Y165100D02*
X24360D01*
X22860Y163600D02*
Y166600D01*
X181380Y208280D02*
X184380D01*
X182880Y206780D02*
Y209780D01*
X158520Y360680D02*
X161520D01*
X160020Y359180D02*
Y362180D01*
X145820Y360680D02*
X148820D01*
X147320Y359180D02*
Y362180D01*
X135660Y266700D02*
X138660D01*
X137160Y265200D02*
Y268200D01*
X128040Y259080D02*
X131040D01*
X129540Y257580D02*
Y260580D01*
X97560Y266700D02*
X100560D01*
X99060Y265200D02*
Y268200D01*
X31520Y241300D02*
X34520D01*
X33020Y239800D02*
Y242800D01*
X75970Y227330D02*
X78970D01*
X77470Y225830D02*
Y228830D01*
X63270Y227330D02*
X66270D01*
X64770Y225830D02*
Y228830D01*
X92480Y203200D02*
X95480D01*
X93980Y201700D02*
Y204700D01*
X117880Y185420D02*
X120880D01*
X119380Y183920D02*
Y186920D01*
X102640Y228600D02*
X105640D01*
X104140Y227100D02*
Y230100D01*
X89940Y226060D02*
X92940D01*
X91440Y224560D02*
Y227560D01*
X150900Y185420D02*
X153900D01*
X152400Y183920D02*
Y186920D01*
X143280Y193040D02*
X146280D01*
X144780Y191540D02*
Y194540D01*
X163537Y167743D02*
X171537D01*
X167537Y163743D02*
Y171743D01*
X51840Y373380D02*
X54840D01*
X53340Y371880D02*
Y374880D01*
X158520Y373380D02*
X161520D01*
X160020Y371880D02*
Y374880D01*
X166180Y81280D02*
X174180D01*
X170180Y77280D02*
Y85280D01*
X135700Y167743D02*
X143700D01*
X139700Y163743D02*
Y171743D01*
X102680Y205740D02*
X110680D01*
X106680Y201740D02*
Y209740D01*
X117880Y175260D02*
X120880D01*
X119380Y173760D02*
Y176760D01*
X149670Y224790D02*
X157670D01*
X153670Y220790D02*
Y228790D01*
X123000Y154940D02*
X131000D01*
X127000Y150940D02*
Y158940D01*
X133120Y144780D02*
X136120D01*
X134620Y143280D02*
Y146280D01*
X117880Y99060D02*
X120880D01*
X119380Y97560D02*
Y100560D01*
X143280Y144780D02*
X146280D01*
X144780Y143280D02*
Y146280D01*
X153440Y144780D02*
X156440D01*
X154940Y143280D02*
Y146280D01*
X181420Y127000D02*
X189420D01*
X185420Y123000D02*
Y131000D01*
X100100Y132080D02*
X103100D01*
X101600Y130580D02*
Y133580D01*
X107720Y124460D02*
X110720D01*
X109220Y122960D02*
Y125960D01*
M02*
