%FSLAX44Y44*%
%MOMM*%
G71*
G01*
G75*
G04 Layer_Color=8388736*
%ADD10C,0.2540*%
%ADD11C,0.3810*%
%ADD12C,0.5080*%
%ADD13R,0.9000X1.0000*%
%ADD14R,2.1000X3.0000*%
%ADD15R,0.8000X1.7000*%
%ADD16O,0.8000X1.7000*%
%ADD17R,1.0000X0.9000*%
%ADD18R,1.0000X1.0000*%
%ADD19O,0.6000X1.9000*%
%ADD20R,1.0000X1.0000*%
%ADD21R,1.8000X1.3000*%
%ADD22O,1.5500X0.2500*%
%ADD23O,0.2500X1.5500*%
%ADD24R,2.0000X1.2000*%
%ADD25C,0.7620*%
%ADD26C,1.2700*%
%ADD27C,0.8890*%
%ADD28C,1.6000*%
%ADD29O,1.4000X3.8000*%
%ADD30O,1.5240X2.0320*%
%ADD31C,1.5000*%
%ADD32C,0.7000*%
%ADD33C,1.2000*%
%ADD34C,0.4000*%
%ADD35C,0.2500*%
%ADD36C,0.2000*%
%ADD37C,0.6000*%
%ADD38C,0.1016*%
%ADD39R,1.1032X1.2032*%
%ADD40R,2.3032X3.2032*%
%ADD41R,1.0032X1.9032*%
%ADD42O,1.0032X1.9032*%
%ADD43R,1.2032X1.1032*%
%ADD44R,1.2032X1.2032*%
%ADD45O,0.8032X2.1032*%
%ADD46R,1.2032X1.2032*%
%ADD47R,2.0032X1.5032*%
%ADD48O,1.7532X0.4532*%
%ADD49O,0.4532X1.7532*%
%ADD50R,2.2032X1.4032*%
%ADD51C,1.8032*%
%ADD52O,1.6032X4.0032*%
%ADD53O,1.7272X2.2352*%
%ADD54C,1.7032*%
%ADD55C,0.7508*%
%ADD56C,1.4032*%
D39*
X140580Y71120D02*
D03*
X123580D02*
D03*
X97400D02*
D03*
X80400D02*
D03*
X133740Y106680D02*
D03*
X150740D02*
D03*
X82160D02*
D03*
X65160D02*
D03*
D40*
X15465Y372890D02*
D03*
X91215D02*
D03*
X122145D02*
D03*
X197895D02*
D03*
D41*
X65715Y343390D02*
D03*
X172395D02*
D03*
D42*
X53215D02*
D03*
X40715D02*
D03*
X159895D02*
D03*
X147395D02*
D03*
D43*
X43180Y270120D02*
D03*
Y253120D02*
D03*
X22860Y270120D02*
D03*
Y253120D02*
D03*
X99060Y107560D02*
D03*
Y90560D02*
D03*
D44*
X84200Y312420D02*
D03*
X68200D02*
D03*
X150240D02*
D03*
X134240D02*
D03*
X172340Y238760D02*
D03*
X188340D02*
D03*
X101220Y312420D02*
D03*
X117220D02*
D03*
X150240Y88900D02*
D03*
X134240D02*
D03*
X81660D02*
D03*
X65660D02*
D03*
D45*
X64770Y243200D02*
D03*
X77470D02*
D03*
X90170D02*
D03*
X102870D02*
D03*
X115570D02*
D03*
X128270D02*
D03*
X140970D02*
D03*
X153670D02*
D03*
X64770Y290200D02*
D03*
X77470D02*
D03*
X90170D02*
D03*
X102870D02*
D03*
X115570D02*
D03*
X128270D02*
D03*
X140970D02*
D03*
X153670D02*
D03*
D46*
X66040Y193420D02*
D03*
Y177420D02*
D03*
Y134240D02*
D03*
Y150240D02*
D03*
X170180Y258700D02*
D03*
Y274700D02*
D03*
X83820Y177420D02*
D03*
Y193420D02*
D03*
Y134240D02*
D03*
Y150240D02*
D03*
X203200Y28320D02*
D03*
Y12320D02*
D03*
D47*
X22860Y93240D02*
D03*
Y64240D02*
D03*
X22860Y39900D02*
D03*
Y10900D02*
D03*
X198120Y75460D02*
D03*
Y46460D02*
D03*
D48*
X104530Y140140D02*
D03*
Y145140D02*
D03*
Y150140D02*
D03*
Y155140D02*
D03*
Y160140D02*
D03*
Y165140D02*
D03*
Y170140D02*
D03*
Y175140D02*
D03*
Y180140D02*
D03*
Y185140D02*
D03*
Y190140D02*
D03*
Y195140D02*
D03*
X185030D02*
D03*
Y190140D02*
D03*
Y185140D02*
D03*
Y180140D02*
D03*
Y175140D02*
D03*
Y170140D02*
D03*
Y165140D02*
D03*
Y160140D02*
D03*
Y155140D02*
D03*
Y150140D02*
D03*
Y145140D02*
D03*
Y140140D02*
D03*
D49*
X117280Y207890D02*
D03*
X122280D02*
D03*
X127280D02*
D03*
X132280D02*
D03*
X137280D02*
D03*
X142280D02*
D03*
X147280D02*
D03*
X152280D02*
D03*
X157280D02*
D03*
X162280D02*
D03*
X167280D02*
D03*
X172280D02*
D03*
Y127390D02*
D03*
X167280D02*
D03*
X162280D02*
D03*
X157280D02*
D03*
X152280D02*
D03*
X147280D02*
D03*
X142280D02*
D03*
X137280D02*
D03*
X132280D02*
D03*
X127280D02*
D03*
X122280D02*
D03*
X117280D02*
D03*
D50*
X171420Y99060D02*
D03*
X199420D02*
D03*
D51*
X30480Y143240D02*
D03*
Y192040D02*
D03*
D52*
X167005Y24384D02*
D03*
X45847D02*
D03*
D53*
X116459Y46228D02*
D03*
X141351D02*
D03*
X96393D02*
D03*
X71501D02*
D03*
D54*
X129413Y24384D02*
D03*
X83947D02*
D03*
D55*
X152400Y71120D02*
D03*
X187960Y20320D02*
D03*
X109220Y73660D02*
D03*
X22860Y165100D02*
D03*
X182880Y208280D02*
D03*
X160020Y360680D02*
D03*
X147320D02*
D03*
X137160Y266700D02*
D03*
X129540Y259080D02*
D03*
X99060Y266700D02*
D03*
X33020Y241300D02*
D03*
X77470Y227330D02*
D03*
X64770D02*
D03*
X93980Y203200D02*
D03*
X119380Y185420D02*
D03*
X104140Y228600D02*
D03*
X91440Y226060D02*
D03*
X152400Y185420D02*
D03*
X144780Y193040D02*
D03*
X53340Y373380D02*
D03*
X160020D02*
D03*
X119380Y175260D02*
D03*
X134620Y144780D02*
D03*
X119380Y99060D02*
D03*
X144780Y144780D02*
D03*
X154940D02*
D03*
X101600Y132080D02*
D03*
X109220Y124460D02*
D03*
D56*
X167537Y167743D02*
D03*
X170180Y81280D02*
D03*
X139700Y167743D02*
D03*
X106680Y205740D02*
D03*
X153670Y224790D02*
D03*
X127000Y154940D02*
D03*
X185420Y127000D02*
D03*
M02*
