%FSLAX44Y44*%
%MOMM*%
G71*
G01*
G75*
G04 Layer_Color=32768*
%ADD10C,0.2540*%
%ADD11C,0.3810*%
%ADD12C,0.5080*%
%ADD13R,0.9000X1.0000*%
%ADD14R,2.1000X3.0000*%
%ADD15R,0.8000X1.7000*%
%ADD16O,0.8000X1.7000*%
%ADD17R,1.0000X0.9000*%
%ADD18R,1.0000X1.0000*%
%ADD19O,0.6000X1.9000*%
%ADD20R,1.0000X1.0000*%
%ADD21R,1.8000X1.3000*%
%ADD22O,1.5500X0.2500*%
%ADD23O,0.2500X1.5500*%
%ADD24R,2.0000X1.2000*%
%ADD25C,0.7620*%
%ADD26C,1.2700*%
%ADD27C,0.8890*%
%ADD28C,1.6000*%
%ADD29O,1.4000X3.8000*%
%ADD30O,1.5240X2.0320*%
%ADD31C,1.5000*%
%ADD32C,0.7000*%
%ADD33C,1.2000*%
%ADD34C,0.4000*%
%ADD35C,0.2500*%
%ADD36C,0.2000*%
%ADD37C,0.6000*%
%ADD38C,0.1016*%
%ADD39R,1.1032X1.2032*%
%ADD40R,2.3032X3.2032*%
%ADD41R,1.0032X1.9032*%
%ADD42O,1.0032X1.9032*%
%ADD43R,1.2032X1.1032*%
%ADD44R,1.2032X1.2032*%
%ADD45O,0.8032X2.1032*%
%ADD46R,1.2032X1.2032*%
%ADD47R,2.0032X1.5032*%
%ADD48O,1.7532X0.4532*%
%ADD49O,0.4532X1.7532*%
%ADD50R,2.2032X1.4032*%
%ADD51C,1.8032*%
%ADD52O,1.6032X4.0032*%
%ADD53O,1.7272X2.2352*%
%ADD54C,1.7032*%
%ADD55C,0.7508*%
%ADD56C,1.4032*%
%ADD57C,0.1000*%
%ADD58C,0.1270*%
%ADD59C,0.0500*%
%ADD60C,0.1524*%
D10*
X213360Y402590D02*
Y444500D01*
X0Y402590D02*
Y444500D01*
X-63500Y0D02*
X-3810D01*
X-63500Y398780D02*
X-3810D01*
D57*
X147580Y63620D02*
Y78620D01*
X116580Y63620D02*
Y78620D01*
Y63620D02*
X147580D01*
X116580Y78620D02*
X147580D01*
X127330Y71120D02*
X136830D01*
X132080Y66370D02*
Y75870D01*
X104400Y63620D02*
Y78620D01*
X73400Y63620D02*
Y78620D01*
Y63620D02*
X104400D01*
X73400Y78620D02*
X104400D01*
X84150Y71120D02*
X93650D01*
X88900Y66370D02*
Y75870D01*
X35680Y277120D02*
X50680D01*
X35680Y246120D02*
X50680D01*
Y277120D01*
X35680Y246120D02*
Y277120D01*
X43180Y256870D02*
Y266370D01*
X38430Y261620D02*
X47930D01*
X76200Y307670D02*
Y317170D01*
X71450Y312420D02*
X80950D01*
X60700Y304920D02*
X91700D01*
X60700Y319920D02*
X91700D01*
Y304920D02*
Y319920D01*
X60700Y304920D02*
Y319920D01*
X104220Y266700D02*
X114220D01*
X109220Y261700D02*
Y271700D01*
X15360Y277120D02*
X30360D01*
X15360Y246120D02*
X30360D01*
Y277120D01*
X15360Y246120D02*
Y277120D01*
X22860Y256870D02*
Y266370D01*
X18110Y261620D02*
X27610D01*
X61290Y185420D02*
X70790D01*
X66040Y180670D02*
Y190170D01*
X73540Y169920D02*
Y200920D01*
X58540Y169920D02*
Y200920D01*
X73540D01*
X58540Y169920D02*
X73540D01*
X91560Y114560D02*
X106560D01*
X91560Y83560D02*
X106560D01*
Y114560D01*
X91560Y83560D02*
Y114560D01*
X99060Y94310D02*
Y103810D01*
X94310Y99060D02*
X103810D01*
X142240Y307670D02*
Y317170D01*
X137490Y312420D02*
X146990D01*
X126740Y304920D02*
X157740D01*
X126740Y319920D02*
X157740D01*
Y304920D02*
Y319920D01*
X126740Y304920D02*
Y319920D01*
X61290Y142240D02*
X70790D01*
X66040Y137490D02*
Y146990D01*
X58540Y126740D02*
Y157740D01*
X73540Y126740D02*
Y157740D01*
X58540Y126740D02*
X73540D01*
X58540Y157740D02*
X73540D01*
X180340Y234010D02*
Y243510D01*
X175590Y238760D02*
X185090D01*
X164840Y246260D02*
X195840D01*
X164840Y231260D02*
X195840D01*
X164840D02*
Y246260D01*
X195840Y231260D02*
Y246260D01*
X11360Y102240D02*
X34360D01*
X11360Y55240D02*
X34360D01*
Y102240D01*
X11360Y55240D02*
Y102240D01*
X22860Y73740D02*
Y83740D01*
X17860Y78740D02*
X27860D01*
X126740Y99180D02*
Y114180D01*
X157740Y99180D02*
Y114180D01*
X126740D02*
X157740D01*
X126740Y99180D02*
X157740D01*
X137490Y106680D02*
X146990D01*
X142240Y101930D02*
Y111430D01*
X165430Y266700D02*
X174930D01*
X170180Y261950D02*
Y271450D01*
X162680Y251200D02*
Y282200D01*
X177680Y251200D02*
Y282200D01*
X162680Y251200D02*
X177680D01*
X162680Y282200D02*
X177680D01*
X17860Y25400D02*
X27860D01*
X22860Y20400D02*
Y30400D01*
X34360Y1900D02*
Y48900D01*
X11360Y1900D02*
Y48900D01*
X34360D01*
X11360Y1900D02*
X34360D01*
X109220Y307670D02*
Y317170D01*
X104470Y312420D02*
X113970D01*
X93720Y319920D02*
X124720D01*
X93720Y304920D02*
X124720D01*
X93720D02*
Y319920D01*
X124720Y304920D02*
Y319920D01*
X139780Y167640D02*
X149780D01*
X144780Y162640D02*
Y172640D01*
X79070Y185420D02*
X88570D01*
X83820Y180670D02*
Y190170D01*
X76320Y169920D02*
Y200920D01*
X91320Y169920D02*
Y200920D01*
X76320Y169920D02*
X91320D01*
X76320Y200920D02*
X91320D01*
X142240Y84150D02*
Y93650D01*
X137490Y88900D02*
X146990D01*
X126740Y81400D02*
X157740D01*
X126740Y96400D02*
X157740D01*
Y81400D02*
Y96400D01*
X126740Y81400D02*
Y96400D01*
X89160Y99180D02*
Y114180D01*
X58160Y99180D02*
Y114180D01*
Y99180D02*
X89160D01*
X58160Y114180D02*
X89160D01*
X68910Y106680D02*
X78410D01*
X73660Y101930D02*
Y111430D01*
X193120Y60960D02*
X203120D01*
X198120Y55960D02*
Y65960D01*
X209620Y37460D02*
Y84460D01*
X186620Y37460D02*
Y84460D01*
X209620D01*
X186620Y37460D02*
X209620D01*
X79070Y142240D02*
X88570D01*
X83820Y137490D02*
Y146990D01*
X76320Y126740D02*
Y157740D01*
X91320Y126740D02*
Y157740D01*
X76320Y126740D02*
X91320D01*
X76320Y157740D02*
X91320D01*
X198450Y20320D02*
X207950D01*
X203200Y15570D02*
Y25070D01*
X210700Y4820D02*
Y35820D01*
X195700Y4820D02*
Y35820D01*
X210700D01*
X195700Y4820D02*
X210700D01*
X73660Y84150D02*
Y93650D01*
X68910Y88900D02*
X78410D01*
X58160Y81400D02*
X89160D01*
X58160Y96400D02*
X89160D01*
Y81400D02*
Y96400D01*
X58160Y81400D02*
Y96400D01*
D58*
X156194Y441960D02*
X213360D01*
X0D02*
X49038D01*
X198120Y447040D02*
X213360Y441960D01*
X198120Y436880D02*
X213360Y441960D01*
X0D02*
X15240Y436880D01*
X0Y441960D02*
X15240Y447040D01*
X-60960Y0D02*
Y140478D01*
Y250174D02*
Y398780D01*
Y0D02*
X-55880Y15240D01*
X-66040D02*
X-60960Y0D01*
X-66040Y383540D02*
X-60960Y398780D01*
X-55880Y383540D01*
D59*
X58220Y232700D02*
Y300700D01*
X160220Y232700D02*
Y300700D01*
X58220Y232700D02*
X160220D01*
X58220Y300700D02*
X160220D01*
X193780Y118640D02*
Y216640D01*
X95780Y118640D02*
Y216640D01*
X193780D01*
X95780Y118640D02*
X193780D01*
D60*
X63259Y430279D02*
X53102D01*
X63259Y440436D01*
Y442975D01*
X60719Y445514D01*
X55641D01*
X53102Y442975D01*
X68337Y430279D02*
X73415D01*
X70876D01*
Y445514D01*
X68337Y442975D01*
X83572Y427740D02*
X86111Y430279D01*
Y432818D01*
X83572D01*
Y430279D01*
X86111D01*
X83572Y427740D01*
X81033Y425201D01*
X96268Y442975D02*
X98807Y445514D01*
X103886D01*
X106425Y442975D01*
Y440436D01*
X103886Y437897D01*
X101346D01*
X103886D01*
X106425Y435358D01*
Y432818D01*
X103886Y430279D01*
X98807D01*
X96268Y432818D01*
X119121Y430279D02*
Y445514D01*
X111503Y437897D01*
X121660D01*
X126738Y430279D02*
Y440436D01*
X129277D01*
X131817Y437897D01*
Y430279D01*
Y437897D01*
X134356Y440436D01*
X136895Y437897D01*
Y430279D01*
X141973D02*
Y440436D01*
X144512D01*
X147052Y437897D01*
Y430279D01*
Y437897D01*
X149591Y440436D01*
X152130Y437897D01*
Y430279D01*
X-61975Y144542D02*
X-64514Y147082D01*
Y152160D01*
X-61975Y154699D01*
X-59436D01*
X-56897Y152160D01*
Y149621D01*
Y152160D01*
X-54358Y154699D01*
X-51818D01*
X-49279Y152160D01*
Y147082D01*
X-51818Y144542D01*
Y159777D02*
X-49279Y162317D01*
Y167395D01*
X-51818Y169934D01*
X-61975D01*
X-64514Y167395D01*
Y162317D01*
X-61975Y159777D01*
X-59436D01*
X-56897Y162317D01*
Y169934D01*
X-46740Y177552D02*
X-49279Y180091D01*
X-51818D01*
Y177552D01*
X-49279D01*
Y180091D01*
X-46740Y177552D01*
X-44201Y175013D01*
X-61975Y190248D02*
X-64514Y192787D01*
Y197865D01*
X-61975Y200404D01*
X-59436D01*
X-56897Y197865D01*
X-54358Y200404D01*
X-51818D01*
X-49279Y197865D01*
Y192787D01*
X-51818Y190248D01*
X-54358D01*
X-56897Y192787D01*
X-59436Y190248D01*
X-61975D01*
X-56897Y192787D02*
Y197865D01*
X-61975Y205483D02*
X-64514Y208022D01*
Y213100D01*
X-61975Y215639D01*
X-59436D01*
X-56897Y213100D01*
X-54358Y215639D01*
X-51818D01*
X-49279Y213100D01*
Y208022D01*
X-51818Y205483D01*
X-54358D01*
X-56897Y208022D01*
X-59436Y205483D01*
X-61975D01*
X-56897Y208022D02*
Y213100D01*
X-49279Y220718D02*
X-59436D01*
Y223257D01*
X-56897Y225796D01*
X-49279D01*
X-56897D01*
X-59436Y228335D01*
X-56897Y230875D01*
X-49279D01*
Y235953D02*
X-59436D01*
Y238492D01*
X-56897Y241031D01*
X-49279D01*
X-56897D01*
X-59436Y243570D01*
X-56897Y246110D01*
X-49279D01*
M02*
